<svg xmlns="http://www.w3.org/2000/svg" width="267.67458" height="544.47895" viewBox="0 0 267.67458 544.47895">
  <defs>
    <style>
      .e68cbb33-463f-4fe9-afe4-9942953b4a28 {
        fill: #131415;
      }

      .a1a739aa-760a-41be-932c-d60e1c7394f8, .b5a66726-9e6c-4da7-9eb1-629f576a2c9a, .e02e90f5-2091-4b33-b146-c4c239ae3e4f, .e1b29307-15c9-4c3b-a5d0-0f436db97759, .e68cbb33-463f-4fe9-afe4-9942953b4a28, .ec090972-19d5-4c97-8456-f659a4145df7, .f024a7cf-b53b-4f3c-9d98-bf066de0681f {
        fill-rule: evenodd;
      }

      .e1b29307-15c9-4c3b-a5d0-0f436db97759 {
        fill: #454647;
      }

      .b5a66726-9e6c-4da7-9eb1-629f576a2c9a {
        fill: #efceb2;
      }

      .a1a739aa-760a-41be-932c-d60e1c7394f8 {
        fill: #a1a2a4;
      }

      .e02e90f5-2091-4b33-b146-c4c239ae3e4f {
        fill: #63626a;
      }

      .ec090972-19d5-4c97-8456-f659a4145df7 {
        fill: #7090a5;
      }

      .f024a7cf-b53b-4f3c-9d98-bf066de0681f {
        fill: #fff;
      }
    </style>
  </defs>
  <g id="bb2b1dd8-ae8f-4f34-a7a8-b46e174acdaf" data-name="katman 2">
    <g id="e056b3a8-f366-4c1e-8b93-900ecd69027b" data-name="katman 1">
      <g>
        <path class="e68cbb33-463f-4fe9-afe4-9942953b4a28" d="M259.28893,68.91191a35.92187,35.92187,0,0,0-9.20209-8.59256,32.20515,32.20515,0,0,0-14.606-4.41211,28.54471,28.54471,0,0,0-9.90148.547,9.46172,9.46172,0,0,1-1.05171.14621c.13916-.40782.222-.64741.30036-.88611.76369-2.35007.13212-5.381-2.89443-6.002-1.06847-.22021-2.15629-.33913-3.23268-.52234-3.34279-.5699-6.66616-1.30364-10.031-1.68151-3.54095-.39726-7.1154-.51881-10.67925-.61659a1.4523,1.4523,0,0,1-1.47012-.86938c-1.37674-2.34567-2.8592-4.60942-5.42244-5.88046a15.17129,15.17129,0,0,1-1.35383-.93369c-1.76256-1.12218-3.50308-2.26991-5.677-2.498a2.34945,2.34945,0,0,1-1.41023-.7672,26.1264,26.1264,0,0,1-2.05852-2.94376,1.1143,1.1143,0,0,1,.1286-.894,15.61051,15.61051,0,0,0,1.51592-2.69976,12.68108,12.68108,0,0,0,.30037-3.36215c.06871-5.078-2.16951-9.129-5.7818-12.48321a4.913,4.913,0,0,0-6.27419-.29772,13.57165,13.57165,0,0,0-2.01886,2.85743c-.07664-.06254-.32854-.2572-.56991-.46156-2.13868-1.81452-4.08443-3.94614-6.45388-5.37838A61.16555,61.16555,0,0,0,146.187,3.99871a12.948,12.948,0,0,1-3.304-1.19618A12.3443,12.3443,0,0,0,138.73861.8321c-1.41286-.2616-2.83013-.5329-4.258-.68969a23.25448,23.25448,0,0,0-11.08357,1.47892,9.92262,9.92262,0,0,1-3.20978.85353A29.35081,29.35081,0,0,0,111.659,3.56181a31.07441,31.07441,0,0,0-9.46369,4.85781,7.00042,7.00042,0,0,1-3.51012,1.619,24.39022,24.39022,0,0,0-10.41237,4.39449,27.69054,27.69054,0,0,0-3.48017,2.52976,7.37388,7.37388,0,0,0-1.96076,5.788c.089,2.66541.61394,5.315.69673,7.98038a18.37942,18.37942,0,0,1-.68264,4.44734,13.9226,13.9226,0,0,1-.9099,2.06468c-1.54587,3.79288-2.94728,7.61835-2.66718,11.82875a1.85473,1.85473,0,0,1-.399,1.00239c-1.80659,2.70681-3.68541,5.37046-5.43477,8.11426-.88172,1.38467-1.60665,2.81427-3.62641,2.3853a.35909.35909,0,0,0-.10217.01674c-3.83517.53643-7.68617.983-11.50372,1.63306-3.87391.66063-7.72405,1.48774-11.568,2.31132-1.74758.37436-2.31924,1.641-1.56085,3.24764.30213.64036.303.95658-.51176,1.13188-2.779.591-5.56776,1.16006-8.30275,1.9167A72.92812,72.92812,0,0,0,27.4608,73.664a80.73858,80.73858,0,0,0-11.44822,5.54046c-4.74947,2.95168-9.08846,6.53316-12.12736,11.38392a23.015,23.015,0,0,0-2.69976,4.92916A29.39945,29.39945,0,0,0,.13639,101.8772a23.86561,23.86561,0,0,0,2.136,13.12094,11.559,11.559,0,0,1,.946,3.422c.37347,2.506.61306,5.03222.917,7.54876.12684,1.057.30654,2.04-.821,2.81867-.84383.58488-.71612,1.39614.15855,2.01889.46949.33207,1.04379.51705,1.51856.84383a1.21893,1.21893,0,0,1,.52145.76193c.20876,3.16925.45011,6.33938.53114,9.513.10394,4.08091,0,8.16711.11627,12.248a17.14586,17.14586,0,0,0,3.78319,10.541,34.27113,34.27113,0,0,0,4.169,4.25444c2.70594,2.35007,5.71046,4.21216,9.43464,4.36983a38.27934,38.27934,0,0,0,12.67435-1.65509c.58136-.17529.88964-.09161.76632.59016-.48709,2.69624-1.0244,5.38278-1.45513,8.08784-.61923,3.89418-1.30452,7.78835-1.70706,11.70719-.66063,6.4486-1.12571,12.91923-1.656,19.3828-.4413,5.40041-.89933,10.80168-1.271,16.20739-.36908,5.37134-.78659,10.74708-.91606,16.12636-.19555,7.92664-.14887,15.85769-.21933,23.78787-.02466,2.74294-.17968,5.48673-.12244,8.22789.14887,7.03172.37612,14.06255.58575,21.09249.09337,3.08556.14446,6.17467.34881,9.25318.35057,5.3.82006,10.59116,1.21643,15.89029.52234,6.97976,1.07727,13.95862,1.51591,20.94451.49592,7.9372.83416,15.88324,1.3424,23.82133a35.19421,35.19421,0,0,0,1.04468,6.5631,4.20161,4.20161,0,0,0,1.9352,2.232,13.79987,13.79987,0,0,0,3.60526,1.15741c2.03121.47829,4.08267.87732,6.12974,1.29131,1.8753.37964,3.75059.7681,5.63647,1.08871,2.73323.46332,5.47.90462,8.21555,1.29131,2.84334.40076,5.68844.85441,8.54939,1.03938a2.83335,2.83335,0,0,0,3.13314-3.05914c.06519-2.66982.16383-5.35372-.0229-8.01121-.3497-4.99609-.83855-9.98426-1.37675-14.96276-.451-4.15929-1.10193-8.2966-1.57846-12.45414-.53908-4.70278-.93986-9.42144-1.48245-14.12332-.35057-3.03183-.84384-6.04608-1.28073-9.06556-.36732-2.54563-.7998-5.08242-1.10985-7.63245-.414-3.40531-.80509-6.81681-1.08255-10.23443-.37084-4.54686-.63156-9.10257-.91254-13.65473a7.05236,7.05236,0,0,1,.17881-1.36881c.096.00178.1929.0053.288.00705a3.67657,3.67657,0,0,1,.20787.54611c.7769,3.74885,1.412,7.53291,2.35624,11.23859.92136,3.61143,1.62955,4.44294,5.15377,4.54071,3.2917.08984,6.5869.10658,9.87858.12155.73286.00178.99094.30919,1.1486.99976a33.46712,33.46712,0,0,0,1.1636,4.13994c.97685,2.661,2.09728,5.26741,3.08822,7.924,1.45778,3.90739,2.83893,7.843,4.2791,11.75739,1.66654,4.524,3.41236,9.01889,5.03223,13.55871,1.56,4.37687,2.98868,8.80132,4.50724,13.19405.86234,2.48837,1.75286,4.96878,2.69625,7.42721,1.31157,3.41235,2.70592,6.79213,4.02542,10.20184q1.65024,4.26238,3.2036,8.56437c.88347,2.44608,1.77489,4.89392,2.51743,7.38315.73463,2.45488,1.286,4.96438,1.92374,7.45012.59544,2.321,1.23582,4.63055,1.78457,6.963.56638,2.39851,1.01648,4.8261,1.56877,7.22991,1.03412,4.50283,2.20387,8.97747,3.13841,13.49968,1.05965,5.1344,1.98981,10.297,2.85038,15.46925.86586,5.20841,1.60928,10.43789,2.34566,15.66565q1.22615,8.70967,2.33247,17.43705c.57079,4.52659,1.11513,9.05674,1.54409,13.59833a92.36172,92.36172,0,0,0,2.48308,14.37,3.799,3.799,0,0,0,1.81715,2.75348,42.19681,42.19681,0,0,0,4.48346,1.648,11.58855,11.58855,0,0,0,1.67535.31268c-.13389.58047-.244,1.16621-.40517,1.74055a20.76128,20.76128,0,0,1-8.30539,11.89833c-2.93143,2.00833-6.09011,3.68893-9.17126,5.4735-7.20789,4.17779-14.44482,8.3001-21.63158,12.514a36.37272,36.37272,0,0,0-4.49227,3.26352,2.31755,2.31755,0,0,0-.55668,1.589c-.007.22107.658.68439.98917.65885a81.9156,81.9156,0,0,0,8.56788-.84471c3.76909-.69057,7.47477-1.72291,11.21217-2.5888,4.90185-1.13454,9.83013-2.16687,14.70645-3.40442,2.91381-.73993,5.75363-1.76871,8.61194-2.71122a.99781.99781,0,0,1,1.22964.32768,3.99148,3.99148,0,0,0,1.66213,1.101c2.97987.82885,5.91659.24225,8.82334-.48622.32238-.08194.56549-.46419.85882-.68794.25985-.19817.53729-.52235.81212-.52762a4.927,4.927,0,0,1,4.13728,1.61458,25.07648,25.07648,0,0,0,3.78321,3.59909,56.50991,56.50991,0,0,0,11.11,5.995,12.80142,12.80142,0,0,0,3.52334,1.02707c1.4384.19112,2.02064-.665,1.59168-2.05059a30.016,30.016,0,0,0-1.11427-3.41765c-1.67977-3.7471-3.45464-7.45361-5.16169-11.18663-1.56525-3.42206-3.14811-6.8397-4.60764-10.30756-.83151-1.97925-1.38292-4.07473-2.1651-6.07865a1.4564,1.4564,0,0,1,.23781-1.55292,8.02085,8.02085,0,0,0,1.47364-3.17013c.32854-3.50926.39725-7.04491.54171-10.5718.14446-3.56034.18233-7.126.41222-10.681.21228-3.2855.64829-6.55606.92839-9.83629q.91828-10.74842,1.7749-21.50032c.34528-4.30289.68-8.60751.95306-12.91481.28276-4.48608.48182-8.974.724-13.46181q.60514-11.195,1.22524-22.38731c.19553-3.42469.35232-6.85554.70995-10.26262.55668-5.322,1.22523-10.6317,1.929-15.9361.38757-2.92172.88877-5.83113,1.44459-8.72645.4959-2.587,1.168-5.13792,1.70441-7.71877.91167-4.39009,1.75815-8.79427,2.67071-13.18348.52939-2.55,1.16975-5.07448,1.69033-7.62541.42281-2.0823.68-4.19894,1.11954-6.27684q1.27766-6.03153,2.68479-12.03749c.82887-3.56474,1.7185-7.1154,2.59318-10.66957.36115-1.46308.85353-2.9006,1.10016-4.38128.13037-.78482.29684-1.04642,1.11954-.99887,3.9708.237,7.94513.51087,11.91948.569a32.36973,32.36973,0,0,0,7.47125-.51353,20.63942,20.63942,0,0,0,11.73008-7.155,6.66284,6.66284,0,0,0,1.4252-3.32426c.36908-3.50926.45891-7.04758.70028-10.57092.19378-2.80635.40165-5.61356.687-8.41111.4959-4.84371,1.25343-9.66982,1.53969-14.52412.38493-6.50584.53729-13.017,2.08583-19.39689,1.04994-4.324,2.03473-8.6639,3.03623-12.99937.59369-2.56851,1.153-5.14408,1.75022-7.71172.96274-4.13024,1.90084-8.26929,2.93406-12.3828.82621-3.282,1.77753-6.53139,2.67334-9.79577,1.01648-3.69864,2.00656-7.40519,3.06-11.095,1.65334-5.79149,3.504-11.53366,4.98553-17.36833,1.3151-5.17139,2.232-10.44319,3.34631-15.66654,1.15566-5.418,2.36681-10.82547,3.50132-16.24879.80509-3.85454,1.65421-7.7082,2.24527-11.59973a80.28029,80.28029,0,0,1,3.21945-13.364c.92664-2.78256,2.23908-5.43741,3.38152-8.14862a44.67129,44.67129,0,0,0,2.62665-9.58438,33.174,33.174,0,0,0-.48007-14.58664A40.22487,40.22487,0,0,0,259.28893,68.91191ZM149.9393,445.24291a1.49836,1.49836,0,0,1-.21758.49767c-.0819.00264-.16558.00527-.24574.00619a4.47837,4.47837,0,0,1-.16648-.77074c-.03171-.61482.00441-1.23582-.03787-1.85242-.303-4.50194-.57606-9.00655-.939-13.50409-.43426-5.396-.8914-10.79024-1.44458-16.173-.57254-5.5898-1.23935-11.16988-1.92463-16.74734-.769-6.25657-1.61721-12.50081-2.402-18.75386-.32327-2.58262-.52673-5.18107-.86938-7.76017-.3268-2.47778-.7866-4.93709-1.15126-7.41047-.41929-2.84949-.80509-5.70341-1.18825-8.55557-.6113-4.55216-1.26225-9.099-1.79777-13.66088-.577-4.90361-1.10986-9.81691-1.53265-14.7364-.39813-4.6103-.65447-9.23292-.91608-13.85379-.089-1.57229.00178-3.15693.00353-4.73449,0-.63684.26864-.931.9425-.90637a30.76751,30.76751,0,0,0,3.08292-.00616c.67912-.04492.92049.2211.99976.8456.3726,2.92613.791,5.8461,1.15037,8.77137.791,6.43539,1.61458,12.86548,2.31924,19.31057.73374,6.71549,1.42254,13.43716,1.981,20.16939.38228,4.60942.51881,9.24.73815,13.86172.12686,2.67156.14183,5.34931.31005,8.01736.222,3.5163.57343,7.02642.81124,10.54183.23607,3.489.47652,6.98062.57872,10.47668.12685,4.35307.01234,8.71586.18674,13.06808.2343,5.8875.636,11.76621.98565,17.64755.08984,1.50622.27569,3.0054.36907,4.50988.16648,2.66541.32239,5.32993.42808,7.99709C150.04236,442.77131,149.9754,444.00886,149.9393,445.24291Zm3.24147,64.90354c-.16121.03349-.31975.06785-.48007.1022-.31356-1.31335-.62891-2.62579-.94691-3.95935a1.34721,1.34721,0,0,1,1.73966,1.08518A24.66513,24.66513,0,0,1,153.18077,510.14645Z"/>
        <g>
          <path class="e1b29307-15c9-4c3b-a5d0-0f436db97759" d="M191.78869,100.1719c0-.66327.04932-1.33182-.007-1.99245-.3127-3.58588-.78922-7.1656-.94954-10.75853a81.98271,81.98271,0,0,1,.76191-16.32365c.06871-.44042.09162-.88788.13212-1.33094a11.008,11.008,0,0,1,1.52209-5.00932,27.90794,27.90794,0,0,0,2.03736-5.12118c.81828-2.21178,1.60488-4.43589,2.40555-6.65383.03436-.0969.0643-.19643.089-.29684.12771-.53731.08809-1.33535.42192-1.55028.3955-.25456,1.11427-.01145,1.693.02467a50.97991,50.97991,0,0,1,11.09765,1.988,28.27306,28.27306,0,0,0,9.83629,1.36353,3.135,3.135,0,0,1,.67119.11186,3.30622,3.30622,0,0,1-1.67006,2.45313c-2.65926,2.05235-5.44093,3.94879-8.057,6.05223a32.482,32.482,0,0,0-9.728,13.55607c-.75046,1.87177-1.43666,3.77437-2.04355,5.69813a.94756.94756,0,0,0,1.75022.717c.97861-1.76431,1.84183-3.59381,2.7535-5.39688a37.989,37.989,0,0,1,13.62828-15.48774,25.03055,25.03055,0,0,1,6.60187-2.41613,12.952,12.952,0,0,1,4.28614-.40871c2.41437.16384,4.81906.54964,7.21405.917a25.80623,25.80623,0,0,1,9.6936,3.489,32.47184,32.47184,0,0,1,7.51265,6.48824,40.58832,40.58832,0,0,1,7.074,11.39538,30.85918,30.85918,0,0,1,2.34039,10.55858,50.47455,50.47455,0,0,1-1.17857,12.55456c-.48181,2.232-1.31421,4.39008-2.01008,6.57368-.39639,1.23846-.88084,2.44872-1.24373,3.696a3.60887,3.60887,0,0,1-1.30539,2.343c-.32854.22021-.43779.82006-.57606,1.26752a47.31624,47.31624,0,0,1-1.74407,5.65761,72.75769,72.75769,0,0,0-4.60678,12.93949c-.82535,3.385-2.07349,6.6644-3.01951,10.023-.91694,3.25733-1.72469,6.54638-2.51391,9.83806-.79011,3.29521-1.47453,6.616-2.247,9.91645-.84474,3.6-1.693,7.20171-2.62224,10.78055-.94777,3.64314-2.01271,7.25368-2.99484,10.88624-.599,2.21179-1.13276,4.44119-1.70705,6.65912-.473,1.82334-.96451,3.64138-1.44458,5.46207-.5752,2.18712-1.1583,4.37159-1.7238,6.56135-.754,2.91822-1.57493,5.82233-2.22236,8.76344-.9601,4.34956-1.767,8.73084-2.68654,13.08921-.71436,3.3833-1.53264,6.74458-2.24612,10.12962A78.34881,78.34881,0,0,0,222.669,253.7025c-.11626,4.96879-.1691,9.94287-.44482,14.90376-.26776,4.8261-.8139,9.63457-1.17769,14.45715-.24133,3.21064-.384,6.4301-.5646,9.646a30.50449,30.50449,0,0,1-.17529,3.07588,3.26374,3.26374,0,0,1-.78834,1.57319,13.94507,13.94507,0,0,1-8.47541,4.45528,38.74449,38.74449,0,0,1-6.8767.185c-3.25558-.09513-6.5085-.32415-9.75965-.53377-6.29445-.40254-12.581-.92928-18.88072-1.22083-5.16875-.2387-10.34893-.22636-15.52562-.30125-6.93217-.10043-13.86435-.27043-20.79566-.23519-5.76154.02906-11.51958.30478-17.27937.488-.58928.01849-.85089-.02027-.80772-.76281a23.58131,23.58131,0,0,0-.05284-4.20335c-.525-4.287-1.16446-8.56-1.74141-12.84172-.71788-5.33434-1.4895-10.66427-2.09991-16.01184-.39991-3.50926-.54789-7.04758-.81743-10.57181-.36907-4.78734-.79979-9.56941-1.10282-14.3585-.19908-3.14811-.1841-6.30768-.3312-9.46017-.17529-3.799-.51176-7.59191-.61659-11.39272-.14446-5.34932-.22285-10.703-.17352-16.055.03965-4.3848.34881-8.767.466-13.15176q.28935-10.59249.46685-21.18939c.01586-.85969.48359-.95042,1.11865-.94954,3.09174.00352,6.18171.04228,9.27079.00793,4.32139-.04668,8.6463-.06606,12.965-.24576,5.07185-.20965,10.13929-.55669,15.20588-.89053,2.73675-.18057,5.46557-.48181,8.20321-.68177,1.87793-.13653,3.76382-.1885,5.64528-.28627.68352-.03611.7857.38933.79186.92752.04755,3.29433.05636,6.58953.16031,9.883q.31447,9.86844.72318,19.73424c.207,4.79616.53292,9.5879.77778,14.38317.3444,6.8159.5602,13.63886,1.02088,20.44684.44042,6.49617,1.12747,12.97647,1.70178,19.463.49327,5.57041.92665,11.147,1.48862,16.70857.30918,3.06707.86761,6.1086,1.23316,9.17126.18234,1.52824.13479,3.08381.27484,4.62087.19115,2.099,1.11427,2.98427,3.18246,3.20889a50.135,50.135,0,0,0,12.80911-.69762c5.29117-.78307,10.60616-1.39964,15.91231-2.0726,1.93959-.24489,3.89416-.38405,5.82145-.68883,1.79866-.28276,2.44431-.96452,2.48044-2.81339a60.34869,60.34869,0,0,0-.22284-6.67761c-.46332-5.05247-1.07814-10.09-1.56259-15.14069-.60689-6.3112-1.15126-12.62855-1.71939-18.94413-.37435-4.17163-.73286-8.34326-1.11779-12.5114q-.51132-5.53211-1.06669-11.06066c-.53292-5.25419-1.09575-10.50309-1.63835-15.7564-.38141-3.68454-.72844-7.37348-1.13187-11.05713-.57165-5.21719-1.138-10.43526-1.79073-15.64364-.40077-3.19392-.931-6.37372-1.45338-9.55178q-.47434-2.88562-1.11954-5.7413a1.11253,1.11253,0,0,1,.53555-1.37762,121.91377,121.91377,0,0,0,21.9698-18.06683q4.87806-5.01152,9.49453-10.27935c2.77462-3.17278,5.31407-6.55078,8.0526-9.75615,1.55643-1.82245,3.30313-3.48018,4.96793-5.21013.11892-.12421.32415-.21317.36289-.35409a11.44149,11.44149,0,0,0,.20083-1.16887c-.40077-.03876-.89759-.24663-1.18562-.08455a8.2478,8.2478,0,0,0-2.04618,1.52736c-2.3809,2.60728-4.709,5.26211-7.03612,7.917a173.27138,173.27138,0,0,1-16.80018,16.92791A108.01747,108.01747,0,0,1,202.3974,151.0261a91.35831,91.35831,0,0,1-9.34039,4.21657c-3.04416,1.227-6.14295,2.35271-9.28665,3.28464-4.16459,1.23316-8.37146,2.358-12.61181,3.28375a42.53975,42.53975,0,0,1-6.04781.37788q-5.90467.40827-11.79968.87732c-3.62463.29155-7.24047.73109-10.8704.91871q-11.50416.59589-23.02152.97949c-4.28525.14621-8.57847.10745-12.869.15414-4.18749.04581-8.375.16561-12.56073.12773-6.10685-.05461-12.21455-.14887-18.317-.37347a64.96138,64.96138,0,0,1-7.24752-.8914c-1.35472-.20348-1.37058-.58488-1.02706-1.80572.436-1.55115,1.64716-1.80219,2.86448-2.203,3.179-1.04731,6.3526-2.114,9.52625-3.17541,3.9937-1.33712,8.06934-2.476,11.96262-4.06066a66.45407,66.45407,0,0,0,16.59584-9.37562,14.1717,14.1717,0,0,1,5.23921-2.18887c4.89745-1.42256,9.87594-2.55707,14.7954-3.91268,2.00478-.55317,3.93556-1.382,5.8972-2.09374,5.04368-1.8295,10.01863-3.88889,15.14951-5.43124,4.70366-1.41374,9.56323-2.33069,14.37877-3.35422,2.88032-.6113,5.87782-.75752,8.693-1.56613a19.73953,19.73953,0,0,0,9.24614-5.16787q4.31259-4.61777,8.27545-9.56147c3.23442-4.03951,6.3235-8.1997,9.39412-12.36606,2.76758-3.75236,5.40921-7.59809,8.1398-11.37775a29.20659,29.20659,0,0,1,6.66353-7.09074c.547-.384.82269-.87026.39725-1.4798-.436-.62011-1.00328-.48094-1.53179-.111a45.398,45.398,0,0,0-8.68769,8.12924q-5.66949,6.72518-11.37071,13.42305c-.29773.35234-.58047.71613-.87116,1.07551C192.03446,100.24677,191.91113,100.20978,191.78869,100.1719Z"/>
          <path class="e1b29307-15c9-4c3b-a5d0-0f436db97759" d="M64.55282,161.99954c-.05726.31975-.0828.54787-.14182.76808a2.52887,2.52887,0,0,0,1.70707,3.43526,16.05962,16.05962,0,0,0,3.5436,1.01032c3.67484.43866,7.36114.81389,11.05362,1.07021,4.64992.32414,9.30778.53642,13.96478.7355,2.36329.10307,4.731.074,7.0969.09954,2.779.03084,5.55807.06343,8.338.07664.621.00265.75313.33208.71.85882q-.27351,3.22916-.5373,6.45918c-.34354,4.16987-.78834,8.33535-1.00591,12.51315-.37,7.15679-.6756,14.31887-.85441,21.48359-.1057,4.25092-.00616,8.51327.16295,12.76332q.3607,9.14439.97685,18.27823c.31182,4.54512.87468,9.07174,1.26137,13.61245.35585,4.16548.569,8.34063.94865,12.50259.4369,4.77766.9099,9.5553,1.5212,14.31358.414,3.22561,1.14155,6.40719,1.63659,9.62313.40695,2.63987.69762,5.3.97508,7.95572.01761.16295-.51617.53643-.80949.55315-1.30013.07753-2.60552.07312-3.90739.07312a124.72627,124.72627,0,0,1-16.9376-1.02618c-3.97169-.54171-7.939-1.1715-11.93-1.471a71.51,71.51,0,0,0-7.90462.22285c-.34265.01322-.68265.08542-1.0253.09865-1.013.0361-1.7511-.244-2.0083-1.40141-.63421-2.86976-1.34327-5.72544-2.02945-8.58552-.54348-2.26376-1.16623-4.51251-1.63307-6.79124-.75048-3.67132-2.26287-7.08279-3.43086-10.61054a19.01413,19.01413,0,0,1-.76545-4.84549c-.41752-7.18851-.8685-14.37877-1.08607-21.57518-.266-8.811-.30918-17.62817-.451-26.44269-.04228-2.60727-.20171-5.2172-.12331-7.82007.2387-7.71348.57518-15.42343.85706-23.136.05813-1.60841.10569-3.22034.05813-4.827a105.22981,105.22981,0,0,1,.78922-17.7647,6.20319,6.20319,0,0,0,.007-1.43488C63.52048,162.12726,63.768,161.88415,64.55282,161.99954Z"/>
          <path class="b5a66726-9e6c-4da7-9eb1-629f576a2c9a" d="M85.77039,24.66047c.65974.429,1.21378.75135,1.71675,1.13892a.766.766,0,0,1,.18145.62363,3.43327,3.43327,0,0,1-.33561.85882c-.66678,1.43488-.48886,2.25141.89318,3.00541a9.73845,9.73845,0,0,0,8.54323.22021,9.37371,9.37371,0,0,0,5.31674-5.03222,1.74129,1.74129,0,0,1,.81476-.83151c1.61721-.68089,2.033-3.31635,1.87-4.56009-.00793-.0599-.155-.10306-.31709-.20171a17.86836,17.86836,0,0,1-.65269,2.22323c-.70555,1.6269-1.6269,2.02856-3.28639,1.37058-3.37448-1.33623-6.645-.902-9.89884.40606a13.09212,13.09212,0,0,1-2.06116.64654,2.32477,2.32477,0,0,1-2.56146-2.41c.089-.60778.25456-1.20587.35851-1.81364a2.64239,2.64239,0,0,1,2.04-2.16246c2.00126-.69057,3.925-1.61016,5.906-2.37033a12.10844,12.10844,0,0,1,1.89291-.36642,33.22885,33.22885,0,0,1,8.48509-.71788,1.55948,1.55948,0,0,0,1.79339-1.34592,1.75584,1.75584,0,0,0-1.153-1.96691c-.84559-.41311-1.70794-.791-2.76936-1.27809,2.4963-.98566,4.77148-1.84095,7.01145-2.7808a23.48077,23.48077,0,0,1,6.85731-1.68416c-.71347.75223-1.49125,1.45514-2.1237,2.27168a2.71361,2.71361,0,0,0,.40165,3.78583,2.754,2.754,0,0,0,3.71183-.40342c2.79931-2.75262,5.8646-5.15994,9.88651-5.662a28.44225,28.44225,0,0,1,6.35082.12244,31.59248,31.59248,0,0,1,4.782,1.10369c1.71235.45451,2.18975.29332,3.42733-1.11955a1.22172,1.22172,0,0,1,1.0843-.177,103.24442,103.24442,0,0,1,16.63107,7.58047,35.73773,35.73773,0,0,1,3.88272,3.03448c1.44985,1.15213,2.86976,2.343,4.36808,3.4291a1.56114,1.56114,0,0,0,1.39877.12331c.3268-.1929.46773-.828.5373-1.29306.08105-.53027-.089-1.09841-.00529-1.62779.33647-2.14836,2.51917-3.04241,4.04655-1.523,3.08381,3.06707,5.45679,6.54108,5.19693,11.19807-.044.78746-.00264,1.58374-.10922,2.36064a1.62574,1.62574,0,0,1-1.59256,1.58374,8.39965,8.39965,0,0,0-1.81364.36114,1.287,1.287,0,0,0-1.03145,1.46131c.111.77866.66241.931,1.3794.85705a.99064.99064,0,0,1,.78041.31622q1.58286,2.27256,3.06795,4.61294a1.11137,1.11137,0,0,1-.04844.85529,55.354,55.354,0,0,1-11.64817,17.66957,36.28457,36.28457,0,0,1-9.26464,6.58513,75.71582,75.71582,0,0,1-17.39473,6.17113,100.56981,100.56981,0,0,1-20.0408,2.698,70.78008,70.78008,0,0,1-13.31383-.98742A39.28725,39.28725,0,0,1,95.079,65.8184a28.64516,28.64516,0,0,1-7.31533-5.61885c-3.36833-3.79112-5.86812-8.10633-5.85844-13.35259a23.31232,23.31232,0,0,1,1.97306-8.88851,30.00407,30.00407,0,0,0,1.59342-3.88978,15.61075,15.61075,0,0,0,.26776-3.65106c.022-1.73789-.0405-3.47578-.059-5.21631A4.554,4.554,0,0,1,85.77039,24.66047Zm66.61852,12.46824a8.178,8.178,0,0,0-.87116.717,51.01832,51.01832,0,0,1-13.99384,10.6819,48.04183,48.04183,0,0,1-11.76268,4.2333,48.24157,48.24157,0,0,1-17.1252,1.43224c-4.59181-.54259-9.0779-1.37058-13.05841-3.94791-2.0779-1.34328-2.15187-1.45338-1.82067-3.87039.05462-.40519-.31887-.86851-.495-1.3054-.44131.2299-1.15831.36907-1.27282.70907a14.59156,14.59156,0,0,0-.69587,3.37625c-.07045.84824.82095,1.61369,1.56789,1.7969a5.8986,5.8986,0,0,1,1.69208.7628,18.92446,18.92446,0,0,0,1.80922,1.33271,40.77438,40.77438,0,0,0,5.20311,2.14659,69.87349,69.87349,0,0,0,8.34945,2.13162,34.62746,34.62746,0,0,0,12.684-.34176c5.37663-1.05436,10.60968-2.48836,15.35033-5.34051,5.41187-3.25469,10.42028-6.99912,14.34-12.034.50209-.64477.85353-1.41462,1.39437-2.01888.95748-1.06757,1.06054-1.38556.05022-2.37826a6.83837,6.83837,0,0,0-2.24-1.56172,25.35944,25.35944,0,0,0-3.84132-.95923c-.72492-.15062-1.54939-.21757-1.68062.80244-.12772.98918.65181,1.04556,1.36353,1.09576C149.29365,34.724,150.74613,35.848,152.38891,37.12871Zm-9.37122-22.19443a3.24216,3.24216,0,0,1-.78834.111c-1.89645-.27922-3.78232-.63684-5.684-.86057a16.74784,16.74784,0,0,0-7.01058.70731,22.577,22.577,0,0,0-7.71173,4.19718,3.19324,3.19324,0,0,1-4.67549-.66062,5.0602,5.0602,0,0,1-1.00062-4.06418,2.45411,2.45411,0,0,0-.22636-.8826c-.24222.24223-.621.45011-.69673.73726a9.59476,9.59476,0,0,0-.16558,1.737c-.31005,4.20071,2.25493,6.35259,6.13942,6.34818.81654,0,1.68329-.81829,2.43464-.69674.76632.1242,1.353,1.12747,2.14043,1.4155a19.30992,19.30992,0,0,0,3.70038.82447,19.8649,19.8649,0,0,0,12.31057-1.75463c2.284-1.16006,3.15779-2.71033,2.89355-5.03486-.03258-.30124.00882-.60865-.00615-.91254a6.90717,6.90717,0,0,0-.12771-1.60577,5.47813,5.47813,0,0,0-.79012-1.54851,3.71337,3.71337,0,0,0-.86849-.67648,3.46056,3.46056,0,0,0-.42282,1.22172A4.83923,4.83923,0,0,0,143.01769,14.93428ZM107.4742,19.60535c-.15943-.05549-.31709-.10922-.47829-.163-.90815,2.01535-1.93344,3.9893-2.68654,6.06015-.5884,1.62074-1.08255,3.35246-.18585,5.093.08631.16648-.10659.57079-.28277.75664a3.55509,3.55509,0,0,1-.99357.72317c-.40518.20171-1.09223.54876-1.24639.40166a3.33372,3.33372,0,0,1-.74342-1.48773,3.75537,3.75537,0,0,1,.059-1.1213c.01323-.2669.00178-.53555.00178-.8042-.1339-.02114-.27043-.0414-.40518-.06166a17.14786,17.14786,0,0,0-.49856,2.28224c-.19731,2.27168,1.1812,3.34189,3.35335,2.65925a11.69972,11.69972,0,0,1,1.2587-.44483,9.46425,9.46425,0,0,1,2.17919-.26337c1.73965.0784,3.47579.37788,5.2119.36907a35.456,35.456,0,0,0,4.26853-.52057c3.01159-.392,6.02317-.77249,9.03035-1.18649a1.1758,1.1758,0,0,0,1.09311-1.27633,5.31868,5.31868,0,0,0-2.63369-5.02164c-1.48332-.84032-3.0565-1.52914-4.60589-2.247-.21406-.09865-.53026.02114-.79716.03788.12244.24928.177.59456.37612.72845.798.53114,1.6727.94866,2.4584,1.49478,1.42254.98918,2.98075,1.8612,3.16661,3.91091.06693.71876-.16207.93016-.77955.99887a8.928,8.928,0,0,0-2.23292.32326,8.0924,8.0924,0,0,1-4.3487.14182,19.21317,19.21317,0,0,0-2.85831-.01938c-1.32478,0-2.65307.05549-3.97258-.022-1.41813-.08368-2.83541-.2669-4.24211-.47389-.29333-.04316-.74431-.3541-.77778-.58928a8.91955,8.91955,0,0,1-.21932-3.40267,63.47592,63.47592,0,0,1,2.27961-6.024C107.32622,20.17878,107.38964,19.88722,107.4742,19.60535Zm68.13531.19379a4.53556,4.53556,0,0,0-.02731-1.37322,3.71811,3.71811,0,0,0-.76106-.9055c-.244.30653-.60162.57782-.71.92575-.20876.67649-.09865,1.501-.43865,2.07613-1.25079,2.11753-.20523,3.5119,1.31948,4.80673a18.50381,18.50381,0,0,0,1.99156,1.55908,1.22061,1.22061,0,0,0,1.02089-.08016.83165.83165,0,0,0,.22462-.78394,7.728,7.728,0,0,0-1.42432-2.676C175.57252,22.24434,175.07307,21.10982,175.60951,19.79914Z"/>
          <path class="e1b29307-15c9-4c3b-a5d0-0f436db97759" d="M89.0885,304.39726a2.847,2.847,0,0,1,.739-.05725,63.95373,63.95373,0,0,0,13.91456,1.96161c7.54173.22373,15.08873.28628,22.634.3858,1.26577.0176,2.53418-.13038,3.8017-.17352,1.15478-.04228,1.19618.07927.97245,1.17327a15.54866,15.54866,0,0,0-.2625,2.5509c-.09161,2.639-.13741,5.27886-.222,7.91871-.02642.85352-.21228,1.71146-.16736,2.5606.24841,4.6878.44746,9.38178.85089,14.05639.554,6.423,1.17416,12.84524,1.95368,19.2445.75839,6.22751,1.78458,12.42242,2.62842,18.64112.32416,2.3765.4272,4.78382.70555,7.16825q.56151,4.80144,1.242,9.58791c.931,6.58336,1.96161,13.15087,2.82748,19.74217.64654,4.9265,1.10456,9.88034,1.64189,14.82007.57254,5.24978,1.18031,10.49517,1.6956,15.75024.33824,3.44671.5417,6.90661.7954,10.35953q.46906,6.36055.92135,12.721c.29155,4.13376.4959,8.27547.86234,12.40218.53555,6.01172,1.175,12.01462,1.78987,18.01838.18411,1.80748.42719,3.60791.6624,5.41012.07135.54875-.08631.89584-.67912.887-2.6381-.03258-5.278-.04054-7.91518-.13742-1.79514-.06693-1.72117-.14623-2.17656-1.8286-1.35824-5.026-1.74317-10.19214-2.29018-15.33533-.60689-5.729-1.15918-11.4641-1.80043-17.18862-.63772-5.69022-1.26225-11.38571-2.06467-17.05388-.77337-5.46206-1.75815-10.89419-2.66982-16.33512-.48271-2.86535-.96363-5.73248-1.53442-8.58285-.458-2.28225-1.07022-4.53278-1.57757-6.80447-.76105-3.40794-1.47627-6.82825-2.23644-10.23619q-1.33844-6.01569-2.72794-12.01726c-.628-2.69887-1.20058-5.418-1.996-8.06757-1.079-3.6035-2.32365-7.155-3.53921-10.71538-1.34856-3.94967-2.73323-7.88876-4.11967-11.827-1.35031-3.8378-2.76495-7.6527-4.07034-11.50635-.92312-2.71826-1.67888-5.49555-2.56765-8.22526-.64565-1.98452-1.3327-3.95847-2.09551-5.899-2.46547-6.27155-4.89922-12.55721-7.4924-18.77591C93.9463,315.20522,92.0842,311.53742,90.386,307.8,89.9024,306.72529,89.54126,305.59341,89.0885,304.39726Z"/>
          <path class="e1b29307-15c9-4c3b-a5d0-0f436db97759" d="M143.24583,306.24525c1.19088.06078,2.30956.16473,3.42821.16384,6.17378-.01145,12.3502-.17,18.52135-.044,5.79062.118,11.57419.53114,17.36038.80508.64917.03084,1.30451.02732,1.95457-.00352.746-.0361.79979.3726.63243.92224-1.23669,4.05185-2.54122,8.08432-3.69952,12.1573-.66415,2.33421-1.10368,4.7336-1.626,7.10394q-.761,3.46168-1.48068,6.93218c-.44657,2.18182-.84648,4.37246-1.286,6.55783-.547,2.71825-1.1354,5.42947-1.66654,8.153-.91608,4.70544-1.7881,9.42055-2.70329,14.126-.48359,2.491-1.09137,4.95648-1.51679,7.45539-.63156,3.71535-1.22789,7.44041-1.69385,11.17956-.52584,4.22007-.94161,8.4525-1.308,12.68755-.30652,3.55154-.51087,7.11187-.68793,10.674-.192,3.90387-.303,7.813-.44306,11.72129-.17881,5.03134-.34617,10.06443-.53025,15.09488-.18233,5.00581-.31534,10.01336-.58662,15.01209-.34706,6.40015-.8685,12.79239-1.20586,19.19431-.436,8.25429-.85882,16.51127-1.10368,24.77265-.1383,4.65611.08809,9.32276.15766,13.98505.015,1.0332-.13123,1.18561-1.00943.865a27.208,27.208,0,0,1-7.14271-3.30228,2.9632,2.9632,0,0,1-1.508-2.7253c.10129-5.42066.06519-10.84572-.022-16.269-.05726-3.5621-.458-7.12243-.40166-10.68013.06167-4.07124.49152-8.13806.70291-12.20838.2669-5.13615.65622-10.27493.65622-15.41377-.00089-5.48321-.15943-10.98754-.66944-16.44344-.887-9.49364-.54612-18.99523-.65886-28.49769-.03965-3.35861-.27131-6.71374-.40958-10.07147-.09777-2.36415-.13917-4.73272-.28362-7.09513-.24927-4.10644-.5655-8.21028-.84033-12.31584-.29859-4.47818-.51265-8.9625-.89317-13.43452-.32591-3.82546-.76017-7.64391-1.27986-11.44735-.8139-5.94564-1.67447-11.886-2.63547-17.80962-.7954-4.901-1.7511-9.77728-2.66541-14.65712C144.26849,311.07574,143.76288,308.77413,143.24583,306.24525Z"/>
          <path class="e1b29307-15c9-4c3b-a5d0-0f436db97759" d="M8.69813,134.84512c2.3113,1.82069,5.06128,1.50535,7.70027,1.67975a40.737,40.737,0,0,0,9.41966-.73373,20.38551,20.38551,0,0,1,8.43224.75224c.48975.12332.97156.2801,1.77312.51441a12.42343,12.42343,0,0,1-1.18472.66856q-6.97358,2.87109-13.95772,5.72454c-.61042.24928-1.22084.59457-.85706,1.353.347.72317.9786.47478,1.60576.25457q7.07531-2.48264,14.17089-4.91066c3.36215-1.15918,6.69788-2.41789,10.1076-3.422,3.01245-.88877,6.11476-1.46043,9.166-2.21971,2.12458-.52762,4.25355-1.05877,6.335-1.72732,4.85428-1.56,9.67509-3.21946,14.51793-4.80937,3.08556-1.01385,6.19139-1.97308,9.28488-2.964,2.898-.9284,5.77124-1.93872,8.693-2.77639,3.15868-.9055,6.33321-1.804,9.5553-2.42847,3.56033-.68881,7.18233-1.05083,10.77438-1.58551.835-.1242,1.2226.11011,1.4437.97685a37.34392,37.34392,0,0,0,5.44356,12.204c.835,1.20059,1.7749,2.32717,2.76847,3.61848-.42192.15326-.71611.28892-1.02618.36554q-5.137,1.26444-10.27937,2.51391a39.76048,39.76048,0,0,0-12.6946,5.87254,62.60908,62.60908,0,0,1-15.8894,7.34441c-3.74533,1.20146-7.47829,2.44079-11.22361,3.6449-2.99308.96452-6.04078,1.77929-8.98366,2.87858-4.265,1.59255-8.48332,3.31634-12.66642,5.10709A86.31006,86.31006,0,0,1,37.327,167.4017c-2.794.67119-5.56072,1.48685-8.38468,2.00214-3.01862.55317-6.113.80949-8.937-.80774a21.19952,21.19952,0,0,1-5.8373-5.29118,17.3977,17.3977,0,0,1-3.58236-6.75953,42.65656,42.65656,0,0,1-.81036-6.30767c-.27747-3.14281-.47037-6.29269-.68441-9.43991-.07751-1.16447-.07751-2.33334-.17968-3.49427-.06519-.76281-.24928-1.51592-.3814-2.2752C8.58626,134.96668,8.64263,134.905,8.69813,134.84512Z"/>
          <path class="e1b29307-15c9-4c3b-a5d0-0f436db97759" d="M29.2956,116.086c-3.34542.33824-6.37372.80333-9.03033,2.42847-3.24324,1.9854-6.36581,4.16371-9.595,6.17289a13.794,13.794,0,0,1-3.00277,1.17593c-.09689.03346-.51352-.42632-.52145-.66591-.07223-2.21442.00969-4.43854-.16032-6.64415a13.076,13.076,0,0,0-.931-3.03008,27.74145,27.74145,0,0,1-1.48157-12.33435,34.67951,34.67951,0,0,1,.939-6.061,20.54546,20.54546,0,0,1,5.11413-7.98654,39.64405,39.64405,0,0,1,6.82824-5.906,108.88119,108.88119,0,0,1,11.324-6.24072,63.40938,63.40938,0,0,1,8.13893-3.13577c3.01422-.99182,6.098-1.78546,9.166-2.61345a1.17584,1.17584,0,0,1,1.02265.35058,102.54813,102.54813,0,0,0,8.38644,10.267c2.16509,2.46635,4.03423,5.19517,6.00025,7.835a1.04167,1.04167,0,0,1-.04229.90374c-3.06267,5.30175-5.14144,11.03335-7.25633,16.74029a117.31437,117.31437,0,0,0-4.524,17.16045,10.28552,10.28552,0,0,0-.19114,1.63394c-.03347.75576-.34529.79981-1.00415.59192a24.5941,24.5941,0,0,1-8.02442-4.71335,37.7,37.7,0,0,0-8.64717-5.30351A13.59818,13.59818,0,0,0,29.2956,116.086Z"/>
          <path class="e1b29307-15c9-4c3b-a5d0-0f436db97759" d="M87.24492,98.08168c1.01032,1.10544,1.89116,2.19328,2.898,3.149a27.03071,27.03071,0,0,0,9.08053,5.68316,52.98755,52.98755,0,0,0,5.38544,1.98277,44.72634,44.72634,0,0,0,10.29872,1.78369,51.79632,51.79632,0,0,0,11.3848-.49768,81.20344,81.20344,0,0,0,8.264-2.01006,50.9624,50.9624,0,0,0,12.60213-5.42683c3.16045-2.02681,6.02139-4.51781,9.04265-6.76658,2.048-1.52561,4.14346-2.99044,6.48383-4.67284a7.6363,7.6363,0,0,1-.01056,1.38556c-.73638,3.12609-1.58286,6.23015-2.22059,9.37561a54.24318,54.24318,0,0,0-1.00769,7.21757c-.16736,2.558-.02731,5.137-.0229,7.70643.00089.29948,0,.59809,0,1.11514-.74519-.2616-1.32214-.51969-1.9264-.66679-3.45463-.84737-6.89782-1.752-10.37888-2.47074a56.66892,56.66892,0,0,0-8.40759-1.28338,42.07758,42.07758,0,0,0-7.36378.55493c-2.61519.32767-5.20663.83416-7.81037,1.26136-.91167.15063-1.82775.28716-2.73587.45892-.53907.10306-.85264.03259-1.09489-.57343-.75312-1.87089-1.937-2.39235-3.9479-1.96339-3.38152.72052-6.79565,1.29924-10.15163,2.12194-4.38568,1.07549-8.76081,2.21971-13.07778,3.54183-3.859,1.18121-7.63334,2.63371-11.4359,3.98932-.69409.24663-1.34593.606-2.16774.98125A141.96051,141.96051,0,0,1,87.24492,98.08168Z"/>
          <path class="a1a739aa-760a-41be-932c-d60e1c7394f8" d="M174.12178,219.95679c0-.82358.0282-1.64893-.01056-2.47074a.81759.81759,0,0,1,.80331-.97245c.47388-.06693.94777-.1515,1.4252-.19819,4.53893-.436,9.08846-.78659,13.61772-1.31862,4.83137-.56814,9.64691-1.28514,14.4642-1.98716.91607-.13388,1.22964-.00176,1.31948,1.02794.473,5.39864,1.03763,10.79024,1.60487,16.17921.07134.68089-.1154.92312-.78041.98741q-8.03719.765-16.0691,1.56789c-4.84723.47477-9.69449.92312-14.53468,1.449-.85793.09249-.90551-.30653-.94777-.91342q-.46112-6.67231-.93809-13.34377C174.09181,219.9612,174.10592,219.95854,174.12178,219.95679Z"/>
          <path class="a1a739aa-760a-41be-932c-d60e1c7394f8" d="M200.5671,258.0776c-4.33018.47565-8.656.98653-12.99144,1.40934-2.04.19908-4.10118.21757-6.15.34088-1.08608.0643-2.17038.17177-3.25559.27131-.74342.06693-1.09575-.14887-1.15652-1.00417q-.5219-7.38714-1.1636-14.76809c-.05462-.64036.12155-.85178.73108-.92839q5.51227-.68441,11.01749-1.41813c3.26349-.436,6.51907-.92928,9.78433-1.34945,3.32867-.42719,6.66794-.78307,9.99838-1.20586.621-.07838.82536.20083.88.70644q.57342,5.215,1.12836,10.43261c.18849,1.80659.34087,3.61848.51264,5.42507.07664.80861.07664,1.45867-1.04994,1.54676-2.75613.22021-5.50434.54348-8.25695.82446C200.58648,258.26611,200.57592,258.17273,200.5671,258.0776Z"/>
          <path class="a1a739aa-760a-41be-932c-d60e1c7394f8" d="M200.27555,204.02247c-4.30816.3083-8.62162.53907-12.921.95306-2.58877.2484-5.1476.7954-7.72406,1.18121-1.72909.25808-3.467.458-5.19693.70467-.65447.09248-.961-.148-1.00943-.80773-.16825-2.25583-.37083-4.50725-.53555-6.76306-.20435-2.80105-.35851-5.60476-.584-8.40317-.126-1.54939-.17441-1.57581,1.382-1.79338q9.67821-1.34634,19.36253-2.65483c2.9182-.38757,5.85051-.673,8.7696-1.042.68353-.08632,1.00328.0414,1.079.79629q.83106,8.345,1.72557,16.68567c.07927.74518-.15413,1.05876-.95306,1.04643-1.12925-.01673-2.26024.08456-3.39212.13653C200.27732,204.04889,200.27732,204.03568,200.27555,204.02247Z"/>
          <path class="e1b29307-15c9-4c3b-a5d0-0f436db97759" d="M102.94054,539.20436c2.11666-1.16535,4.24386-2.31042,6.34818-3.49958,4.05712-2.29548,8.08518-4.64466,12.15642-6.91368,3.01951-1.68329,6.07776-3.3005,9.14219-4.90363a25.41017,25.41017,0,0,0,8.29571-6.91368,20.72027,20.72027,0,0,0,4.13465-11.413c.05548-.63509.21405-.82885.94866-.78573,1.53442.09424,3.08029-.01672,4.62261-.06516.50735-.01672.8271.03435.87554.6809.23518,3.24147.47566,6.48294.79452,9.7165.39814,4.0272.92135,8.042,1.28868,12.07188a7.82163,7.82163,0,0,1-.30389,3.44055c-.488,1.24023-1.95546.80422-2.99395.95744-1.737.25983-3.46346.28628-4.87543-1.1891a2.29284,2.29284,0,0,0-1.81716-.32414c-2.1783.44924-4.32754,1.042-6.49176,1.56082-4.457,1.06933-8.92109,2.11134-13.37549,3.19658-2.698.65622-5.37837,1.36969-8.06668,2.06118-3.3137.85175-6.62477,1.71323-9.94113,2.55794a2.7003,2.7003,0,0,1-.6756.0079C102.98546,539.36817,102.96344,539.28538,102.94054,539.20436Z"/>
          <path class="a1a739aa-760a-41be-932c-d60e1c7394f8" d="M69.001,373.44069c0,.8914-.0141,1.78546.00441,2.67775.015.71084-.07488,1.0429-.9927.83855-3.3049-.73549-6.62918-1.39171-9.96226-1.99156-1.41286-.25456-2.8724-.23607-4.29407-.45275-2.0638-.31975-4.1135-.73109-6.16674-1.12132-2.28842-.43249-4.56978-.89933-6.86259-1.31773a1.42418,1.42418,0,0,1-1.3697-1.49125c-.1656-3.49076-.36643-6.9815-.56021-10.47138-.0555-1.02793-.10394-2.05588-.20611-3.07852-.07664-.776.16295-1.12394.97684-.91341,2.25494.58047,4.5134,1.146,6.76394,1.74054,2.74557.72318,5.46646,1.54587,8.23053,2.18534,3.334.77074,6.7014,1.40405,10.05914,2.0735a17.81972,17.81972,0,0,0,2.5421.34176c.54787.02906.80332.17352.86586.74342.37084,3.40708.76632,6.81239,1.15478,10.2177C69.12347,373.42572,69.06182,373.43279,69.001,373.44069Z"/>
          <path class="a1a739aa-760a-41be-932c-d60e1c7394f8" d="M171.52242,175.19887c-.19994-2.42495-.377-4.85341-.61219-7.27571-.06255-.643-.04051-.96716.746-1.11338q3.574-.66459,7.10569-1.54411c2.0224-.50648,4.02718-1.10545,6.0082-1.75726q4.48435-1.47452,8.91846-3.09086c1.72732-.63244,3.39827-1.42079,5.115-2.08846.14445-.05637.61041.2387.63683.4131.776,5.18637,1.50975,10.37977,2.262,15.56878.11626.79892-.06518,1.11954-.99,1.19-3.58942.27042-7.17.68264-10.75589,1.00063-5.26034.466-10.52422.89318-15.78545,1.34592-.54437.04757-1.0843.155-1.62514.24752-.5937.10217-.92049-.10394-.95484-.73638-.03965-.71788-.10922-1.434-.16559-2.15011C171.45723,175.20327,171.48984,175.20151,171.52242,175.19887Z"/>
          <path class="a1a739aa-760a-41be-932c-d60e1c7394f8" d="M66.64215,351.5114c-4.82082-.7267-9.48837-1.43136-14.1568-2.13338-1.42343-.2158-2.84422-.46332-4.27382-.63421q-4.54115-.53906-9.09023-.99975c-.65974-.06694-.75752-.451-.79275-.97245q-.41223-6.36579-.83592-12.72895c-.03963-.606-.07751-1.21115-.11891-1.88586a2.0912,2.0912,0,0,1,.63685-.02554,80.16338,80.16338,0,0,0,12.315,2.29545c3.79287.55756,7.54875,1.3688,11.324,2.04354.77249.13831,1.57493.1154,2.34037.27922.3083.06693.75312.40606.79451.67385.65094,4.33724,1.24991,8.68417,1.85328,13.0302A9.43036,9.43036,0,0,1,66.64215,351.5114Z"/>
          <path class="b5a66726-9e6c-4da7-9eb1-629f576a2c9a" d="M7.014,129.83053a3.24947,3.24947,0,0,1,.93016-.33648,53.054,53.054,0,0,0,9.61256-1.58727,24.283,24.283,0,0,1,4.71335-.1885c1.16447-.0185,2.33069.02731,3.49692.01233a3.5486,3.5486,0,0,0,.82006-.20787c.00528-.10041.01145-.20082.01586-.30213a3.5832,3.5832,0,0,0-.83592-.25367,38.87214,38.87214,0,0,0-4.82874-.15767c-2.68919.20259-5.36517.60073-8.04115.94072-1.49214.19114-2.97634.44923-4.46848.63862a3.5263,3.5263,0,0,1-.94865-.14094c-.01057-.10218-.022-.20524-.03347-.30741A18.80431,18.80431,0,0,1,9.32794,127.41c3.05122-.54963,6.14471-.9196,9.15188-1.64452a17.33471,17.33471,0,0,1,6.21166-.27306,13.7713,13.7713,0,0,0,2.46193.07927c.2854-.01849.75224-.36026.77073-.58488.02291-.273-.31093-.80419-.54083-.835-2.97017-.39109-5.921-1.33535-8.95458-.4272-.91519.27394-1.833.54348-2.75965.77866a1.24459,1.24459,0,0,1-.95835-.21756c.50561-.33825,1.005-.68794,1.52208-1.00944q2.7033-1.68723,5.4145-3.35511a12.51044,12.51044,0,0,1,6.33409-1.87529,4.88231,4.88231,0,0,1,2.15012.59544,59.518,59.518,0,0,1,9.78785,6.0258,25.55387,25.55387,0,0,0,8.656,4.16459c1.597.45452,3.06443,1.34944,4.6288,1.94665a20.108,20.108,0,0,0,2.77551.59809,9.893,9.893,0,0,1-1.43047.64213c-3.52246.84384-7.06342,1.619-10.57355,2.50863a35.58978,35.58978,0,0,0-4.26766,1.47012,2.07726,2.07726,0,0,1-2.10167-.2528A16.14033,16.14033,0,0,0,27.58062,132.939c-1.77136.111-3.51894.55317-5.28678.75752-3.06178.35409-6.12445.70643-9.1968.91343a6.44955,6.44955,0,0,1-2.65131-.63949c-.42632-.16736-.70731-.70026-1.25431-1.28162,3.319-.26425,6.268-.54171,9.22412-.71875,1.49478-.08985,3.00013.01673,4.50018-.00528a2.248,2.248,0,0,0,.76017-.32063c-.24487-.16736-.48534-.47125-.73638-.48005-4.14345-.16472-8.28778-.26426-12.42947-.44394-1.16271-.05109-2.3166-.31182-3.4749-.47653C7.02807,130.10447,7.02014,129.96706,7.014,129.83053Z"/>
          <path class="a1a739aa-760a-41be-932c-d60e1c7394f8" d="M63.605,327.12105c-1.37323-.16384-2.56323-.24134-3.72858-.45717-5.61444-1.04731-11.22361-2.13338-16.83542-3.20359q-2.768-.52716-5.53869-1.04909c-.54348-.10217-.8967-.27394-.92928-.97949-.15063-3.21682-.37612-6.43186-.57342-9.64779-.07752-1.23142-.13036-2.4637-.24136-3.69246-.06958-.7628.22286-1.06405.94251-.84207C41.61057,308.7565,46.73086,309.1,51.756,309.965c2.83277.48711,5.66554.983,8.50271,1.43666.599.096.90815.30211,1.00239.93193q.99359,6.65385,2.03649,13.30238C63.36369,326.06669,63.4738,326.49037,63.605,327.12105Z"/>
          <path class="a1a739aa-760a-41be-932c-d60e1c7394f8" d="M210.74956,266.27906c.10659.525.22373.94866.27569,1.37851.40343,3.36833.7866,6.73839,1.18914,10.10583.08279.70995-.09688,1.01648-.9099,1.09841q-6.59965.66591-13.18522,1.47012c-3.03008.36467-6.04253.88084-9.0779,1.19792-2.85656.29949-5.73425.41929-8.60138.63684-.8729.06694-1.08077-.34792-1.13714-1.15567-.23871-3.27934-.53114-6.556-.85089-9.83013-.0696-.70643.05814-.97508.82358-1.01562,7.08719-.38227,14.17528-.67737,21.22463-1.65156a62.45745,62.45745,0,0,0,9.04884-1.7749C209.90308,266.63758,210.24044,266.47637,210.74956,266.27906Z"/>
          <path class="a1a739aa-760a-41be-932c-d60e1c7394f8" d="M58.158,260.42855c.15063,3.00454.28364,5.7413.4228,8.47982.08809,1.71146.15943,3.42469.296,5.13352.05637.72052-.23871.9425-.88.8782-1.43136-.14182-2.87328-.2255-4.29056-.45276-5.88751-.95043-11.7662-1.9493-17.65107-2.9226-.7399-.12245-1.0015-.503-.9927-1.2693.04757-4.738.05637-9.47514.05637-14.2123-.00176-.69586.20259-.909.91606-.75135,2.67422.59722,5.34491,1.23228,8.04467,1.69386,3.71449.63509,7.45188,1.12746,11.18045,1.6771.47477.07046.95747.09954,1.42871.18674C58.21345,259.15663,58.21167,259.16367,58.158,260.42855Z"/>
          <path class="a1a739aa-760a-41be-932c-d60e1c7394f8" d="M35.14963,282.37548c3.8378.77425,7.54348,1.589,11.27647,2.25757,2.9279.525,5.88662.87379,8.83126,1.29131,1.08607.15413,2.18712.22109,3.25205.45891a1.23676,1.23676,0,0,1,.65269.9328c.15679,2.32716.20348,4.66049.34618,6.98854.15238,2.49542.32766,4.99169.58046,7.47829.09425.9328-.44482.80156-.93016.70028-1.51328-.30919-3.01246-.67912-4.51693-1.02089-2.63634-.60074-5.26828-1.21292-7.909-1.79073-2.676-.58576-5.35813-1.13715-8.03939-1.6956-.63772-.133-1.27457-.26338-1.91934-.34176-.91607-.11011-1.33975-.47652-1.35472-1.51416-.06254-4.38832-.22725-8.774-.34881-13.16232A3.08905,3.08905,0,0,1,35.14963,282.37548Z"/>
          <path class="a1a739aa-760a-41be-932c-d60e1c7394f8" d="M35.15756,242.94836c.14357-4.20951.29509-8.42079.42193-12.63118.02025-.6809.35938-.82974.93016-.71,1.74318.3629,3.48371.73463,5.22512,1.10368,1.97308.414,3.93206.91783,5.92187,1.22,2.74116.42015,5.50434.70466,8.26312,1.01295.62892.0696.78746.39639.8183.94955q.38846,6.92207.80067,13.84585c.01762.274.01762.54789.03523.82184.044.63861-.15239.95836-.88348.85352-2.506-.35851-5.02076-.65095-7.52587-1.01648-2.3025-.33472-4.60942-.66592-6.89078-1.12306-2.18007-.436-4.33547-1.00061-6.47767-1.59431-.28979-.07927-.56638-.621-.636-.98916a9.58322,9.58322,0,0,1-.02819-1.74407Z"/>
          <path class="e1b29307-15c9-4c3b-a5d0-0f436db97759" d="M176.02877,541.96751a10.773,10.773,0,0,1-1.24991-.547c-3.65458-2.16332-7.33649-4.28617-10.92855-6.549a19.72114,19.72114,0,0,1-3.04857-2.75084,7.4419,7.4419,0,0,0-5.3405-2.27961c-.902,0-1.11249-.40693-1.14685-1.27368-.074-1.84446-.259-3.6907-.49856-5.52286a25.38691,25.38691,0,0,1,.42193-8.68325c.37348-1.76167.50735-3.57533.754-5.36432.03083-.22107.09513-.43864.14621-.66944,1.36442.62713,2.62224,1.31862,3.95672,1.78457a21.8211,21.8211,0,0,0,3.9576.94073c.77955.11629.94162.56638,1.07726,1.14771.47388,2.06908.82621,4.17338,1.43488,6.20107a47.15,47.15,0,0,0,2.58261,7.23254c1.98366,4.05715,4.28615,7.95661,6.39663,11.95473.69409,1.31861,1.19881,2.73411,1.79073,4.10644C176.23226,541.78784,176.13008,541.87767,176.02877,541.96751Z"/>
          <path class="a1a739aa-760a-41be-932c-d60e1c7394f8" d="M60.75818,107.89066q7.84956.29465,15.70443.59016c1.09311.04052,2.18623.09689,3.27846.1515.56461.02819.71259.27571.46773.80861a80.44084,80.44084,0,0,0-4.64114,13.7754,1.046,1.046,0,0,1-.8324.57078c-3.67573-.35763-7.3629-.65711-11.01133-1.2138-2.484-.37964-4.91242-1.14157-7.36379-1.73349-.09954-.02466-.192-.0731-.28892-.10393-1.82949-.56815-1.74846-.54084-1.13012-2.45137.75576-2.34214,1.35737-4.73361,2.03473-7.1013.10306-.362.25192-.70819.37612-1.064C58.19846,107.66958,58.19846,107.66958,60.75818,107.89066Z"/>
          <path class="e1b29307-15c9-4c3b-a5d0-0f436db97759" d="M63.36369,88.27181C61.21445,85.15453,59.444,82.42658,57.5,79.82723c-1.4754-1.97131-3.22121-3.73739-4.753-5.66994-1.36-1.71762-2.59318-3.53743-3.87743-5.31584-.15415-.2158-.27482-.45892-.53555-.9011.89757-.20435,1.67006-.392,2.44872-.554,2.91469-.6113,5.84171-1.1627,8.74142-1.833,3.5621-.82358,7.10218-1.73,10.64491-2.63282.86762-.222.85793.14.69585.79012a53.7942,53.7942,0,0,0-1.21819,5.28061,5.51173,5.51173,0,0,0,1.23053,3.82371,3.89636,3.89636,0,0,0,.34176.38492c.55581.63421,1.493,1.23582,1.55027,1.91318.04933.5787-.94161,1.21908-1.42432,1.87089q-3.8554,5.20311-7.67472,10.43439A3.07889,3.07889,0,0,0,63.36369,88.27181Z"/>
          <path class="a1a739aa-760a-41be-932c-d60e1c7394f8" d="M36.22337,219.60269c.17088-3.09349.34441-6.12887.50471-9.16423.10659-2.018.26426-4.03775.26426-6.05575,0-.94689.30124-1.02794,1.08518-.83239,2.65837.66239,5.315,1.33182,7.99182,1.90613,2.343.50119,4.71248.88172,7.0696,1.31069a27.88,27.88,0,0,1,2.82308.5285c.26073.07664.5329.63949.53818.9839.06254,4.0818.07575,8.16447.1013,12.248.01057,1.62955-.00265,1.72732-1.59079,1.53442-5.44-.66326-10.86864-1.40405-16.30251-2.11752C37.86878,219.83346,37.02934,219.71279,36.22337,219.60269Z"/>
          <path class="a1a739aa-760a-41be-932c-d60e1c7394f8" d="M54.77025,197.10173q-8.19574-1.061-16.39236-2.11576c-.65446-.08368-.87115-.35586-.80685-1.013q.69762-7.00924,1.34592-14.02555c.05374-.58664.28627-.78218.84648-.71965,3.33925.36819,6.67585.73814,10.01775,1.08432,2.48484.25721,4.97232.51969,7.46421.69674.747.05285.96979.32766.92047.99974-.08456,1.12836-.14357,2.25846-.23607,3.38593-.27834,3.445-.60689,6.8855-.82623,10.33309-.059.9469-.3171,1.33006-1.271,1.15037a8.06254,8.06254,0,0,0-1.02529-.06695C54.79315,196.908,54.7817,197.00484,54.77025,197.10173Z"/>
          <path class="a1a739aa-760a-41be-932c-d60e1c7394f8" d="M189.14884,103.36669a2.687,2.687,0,0,1-.27747.70554c-3.52071,4.206-6.94451,8.49654-10.61935,12.56337a14.643,14.643,0,0,1-9.04443,4.67812.264.264,0,0,1-.10129.01234c-1.96339-.69586-3.93556-1.36178-5.869-2.129-.237-.09424-.35762-.7214-.3673-1.10633-.09865-3.73562-.15239-7.47213-.24752-11.20951-.02027-.79892.185-1.09577,1.079-1.15918q6.7701-.47565,13.52611-1.13188c3.71272-.36114,7.4131-.83767,11.11967-1.25782A5.58332,5.58332,0,0,1,189.14884,103.36669Z"/>
          <path class="b5a66726-9e6c-4da7-9eb1-629f576a2c9a" d="M162.87,122.55659c-.92135.14533-1.85681.23959-2.7667.44746-2.39676.54348-4.76533,1.23581-7.17792,1.68857-4.31346.80773-8.17241,2.92-12.33612,4.14433a2.7616,2.7616,0,0,0-.91871.44394c-.93457.739-1.634.36819-2.26464-.41927-1.0711-1.338-2.15628-2.66541-3.19919-4.02366-2.14572-2.79577-2.51127-2.87592-6.42745-1.50887a44.54968,44.54968,0,0,0-4.33988,1.84271c-.61746.29331-.92665.1242-1.09664-.421-.377-1.20763-.71611-2.4267-1.05083-3.64754-.16825-.62363-.27217-1.26489-.44835-1.885-.19819-.69851-.05374-.97332.75487-1.0068,3.04505-.12773,6.113-.14534,9.12282-.562a42.27359,42.27359,0,0,1,11.87894-.28979c3.79025.547,7.55493,1.31157,11.29321,2.151,2.59141.584,5.12029,1.45251,7.67474,2.20386.443.12948.87379.30388,1.30892.45715C162.87615,122.30027,162.87437,122.42886,162.87,122.55659Z"/>
          <path class="a1a739aa-760a-41be-932c-d60e1c7394f8" d="M186.92207,83.25456c.20172,2.72531.38053,5.45238.61746,8.17416.07312.84032-.14094,1.14332-1.03763,1.32566-2.5377.51793-5.02516,1.27721-7.55934,1.81981-2.40555.517-4.84989.85529-7.26867,1.31773-2.3527.44923-4.69662.94513-7.03876,1.44633-.97244.20788-1.1812.07487-.96363-.85705.38142-1.63043.89492-3.23267,1.20234-4.87455a2.58232,2.58232,0,0,1,1.72468-1.86208,24.81547,24.81547,0,0,0,7.62627-6.15088,2.70933,2.70933,0,0,1,2.19152-1.01473c3.215-.07046,6.42924-.28979,9.64428-.44041C187.14758,82.08657,187.14758,82.10155,186.92207,83.25456Z"/>
          <path class="e02e90f5-2091-4b33-b146-c4c239ae3e4f" d="M171.79373,182.09317c-.06078-3.05475-.58929-2.86976,2.22676-3.0336,5.74218-.33208,11.47641-.74431,17.21418-1.14421,2.73412-.19026,5.46735-.4272,8.20236-.63861.1691-.0141.34353,0,.51442-.01234,2.01446-.12772,2.00741-.12772,2.19416,1.85329.11451,1.22612.23077,2.45489.39724,3.67484.10833.79275-.3999.95835-.96451,1.03586-2.03384.27834-4.08091.47388-6.1086.79275-5.07362.79715-10.14284,1.63483-15.21028,2.476-2.4681.40783-4.93091.84737-7.392,1.28955-.73023.13036-.69235-.392-.72141-.81917C172.006,185.554,171.88445,183.53686,171.79373,182.09317Z"/>
          <path class="a1a739aa-760a-41be-932c-d60e1c7394f8" d="M127.25073,90.266c1.45867-.1885,2.93672-.35762,4.4077-.57255,2.90764-.42544,5.817-.8271,8.71059-1.338,1.449-.25633,1.58023-.24664,1.71412,1.23757a32.58915,32.58915,0,0,1-1.50358,12.46647,2.16209,2.16209,0,0,1-1.13363,1.13805,60.816,60.816,0,0,1-13.54549,4.03688c-1.16886.20435-1.16182.17-1.06932-1.05524.21932-2.88738,1.58375-5.36782,2.74909-7.91344,1.09137-2.38794,1.37674-4.71511-.11363-7.04052a2.03215,2.03215,0,0,1-.20964-.46772A2.37713,2.37713,0,0,1,127.25073,90.266Z"/>
          <path class="a1a739aa-760a-41be-932c-d60e1c7394f8" d="M76.72244,99.72972q-7.40562,0-14.8095.00528c-.59016.00088-.76808-.23342-.51176-.75664,1.53266-3.13049,3.08469-6.25129,4.60061-9.38971a1.41853,1.41853,0,0,1,1.54764-.87819c4.47993.1973,8.96073.44217,13.44418.47477,1.44722.01145,2.19064.35145,2.67157,1.74582.554,1.61017,1.38819,3.12256,2.08846,4.6834a1.03553,1.03553,0,0,1,.1471.65535c-.3858,1.02441-.79627,2.04178-1.26577,3.03008a.95144.95144,0,0,1-.72052.41223C81.5186,99.74117,79.1192,99.72972,76.72244,99.72972Z"/>
          <path class="e02e90f5-2091-4b33-b146-c4c239ae3e4f" d="M210.65091,264.99042c-3.4749.59985-6.93043,1.257-10.40708,1.77575-3.41939.51265-6.85554.9196-10.29345,1.3054-3.40357.38493-6.81944.67649-10.22916,1.02793-1.64541.16825-1.707.10747-1.83038-1.55555-.1154-1.53883-.23607-3.07941-.45891-4.60238-.15239-1.05083.31182-1.33886,1.22524-1.34326,1.715-.00968,3.437.0458,5.14233-.08191,4.74858-.355,9.48837-.79364,14.23254-1.18825,1.70705-.14,3.41676-.24311,5.12381-.36289,1.60487-.11274,3.21064-.2211,4.81465-.33913a2.05431,2.05431,0,0,0,.49942-.10747c1.63834-.547,1.63834-.54875,1.79514,1.19088C210.384,262.0352,210.50382,263.35909,210.65091,264.99042Z"/>
          <path class="a1a739aa-760a-41be-932c-d60e1c7394f8" d="M120.43393,95.4057a23.97482,23.97482,0,0,1-1.26225,3.615,12.55847,12.55847,0,0,0-1.71412,7.97685c.10043.65006-.20787.84913-.8456.74872-2.8354-.44394-5.68051-.82271-8.50888-1.308-1.24287-.21316-2.44872-.63685-3.67836-.93633-.53907-.13124-.68617-.44482-.46332-.90461.54963-1.1354,1.06757-2.29546,1.71938-3.37184a6.75267,6.75267,0,0,0,1.005-5.29119,2.75391,2.75391,0,0,1,.18674-1.46307A28.00887,28.00887,0,0,1,108.17972,91.36a1.30147,1.30147,0,0,1,.96188-.61306c3.038.044,6.07513.16648,9.11489.24575,1.5353.04052,1.53969.03524,1.61546,1.51328a10.54768,10.54768,0,0,0,.19379,1.41639C120.14678,94.354,120.2745,94.77766,120.43393,95.4057Z"/>
          <path class="e02e90f5-2091-4b33-b146-c4c239ae3e4f" d="M205.00123,205.62471c.19115,1.69737.40606,3.28727.51,4.886.01675.229-.47036.6756-.76544.71348-6.28652.82006-12.57922,1.58638-18.86752,2.3853-3.63344.46419-7.266.93985-10.88978,1.47451-.75223.11011-.97771-.0458-1.01207-.78218-.08368-1.81276-.22373-3.62376-.35232-5.43476-.04492-.63507.3488-.70995.84032-.75752,2.96753-.29155,5.9289-.66062,8.90086-.887,6.48735-.49592,12.98177-.92223,19.47264-1.38115C203.51791,205.79206,204.19351,205.70574,205.00123,205.62471Z"/>
          <path class="e02e90f5-2091-4b33-b146-c4c239ae3e4f" d="M38.62628,353.67561c-.06958-1.40934-.111-2.67686-.20523-3.94086-.05461-.72933.1656-1.01032.93457-.87554,5.84258,1.01826,11.68341,2.055,17.53745,3.001,2.80722.45451,5.63734.7628,8.46394,1.072,1.53618.16825,1.59079.18763,1.73525,1.6727q.2484,2.55928.61658,5.10357c.1057.73108-.04228,1.06053-.84207.91607-3.20448-.58135-6.41161-1.1354-9.61432-1.72379-1.922-.35145-3.844-.69939-5.7501-1.12573-2.17125-.48711-4.31785-1.08166-6.4856-1.58374-1.66654-.3858-3.34366-.73727-5.02958-1.02793C39.01033,354.99512,38.27836,354.74671,38.62628,353.67561Z"/>
          <path class="e02e90f5-2091-4b33-b146-c4c239ae3e4f" d="M180.39508,234.98207c3.52423-.22813,7.05109-.43337,10.5718-.69761,3.58853-.26954,7.17529-.58488,10.75941-.90637,1.67006-.148,3.33924-.32854,5.00051-.55757.55315-.07486.75928.07134.81213.59633.11273,1.12395.25015,2.24789.37259,3.37095.07046.65448-.14975.97509-.88613,1.06406-4.86486.58136-9.73411,1.15389-14.58312,1.8524-3.08645.44571-6.13943,1.11779-9.21179,1.66124-2.25935.399-4.52837.7496-6.79124,1.12747-.5831.09688-.85352-.0229-.88-.72493-.06518-1.71145-.20964-3.42291-.39372-5.12736-.09161-.85529.09513-1.27281,1.042-1.32388,1.39612-.07487,2.78785-.274,4.18134-.41929C180.38981,234.92484,180.39333,234.953,180.39508,234.98207Z"/>
          <path class="e02e90f5-2091-4b33-b146-c4c239ae3e4f" d="M37.53141,323.2718c1.90965.43512,3.61583.806,5.31409,1.21644,2.36416.56813,4.75474,1.05436,7.07047,1.77842a75.34808,75.34808,0,0,0,13.12534,2.35712c.60337.07486.80509.37348.87819.924.22286,1.66391.46067,3.32693.72845,4.98376.1286.79452-.29068.89492-.89581.78748-2.02241-.35851-4.03775-.77073-6.069-1.0843-3.92324-.60689-7.86058-1.13187-11.78118-1.74844-2.73852-.429-5.46294-.9425-8.18561-1.46219a.8635.8635,0,0,1-.50561-.63684c-.15414-2.15277-.2801-4.30905-.34176-6.46533C36.86374,323.699,37.3253,323.4647,37.53141,323.2718Z"/>
          <path class="e02e90f5-2091-4b33-b146-c4c239ae3e4f" d="M35.19368,272.82015c3.54007.77073,6.95948,1.59694,10.415,2.2426,3.56474.66326,7.163,1.1583,10.74971,1.70971.82271.12685,1.93608-.10922,2.40557.34617.43161.42193.18145,1.54939.22814,2.3633.08192,1.49829.1885,2.99661.207,4.494.00176.18056-.49855.54-.74343.52147-2.07877-.163-4.16459-.32943-6.22751-.621-3.25381-.46069-6.49969-.98653-9.73676-1.55028-2.22235-.38846-4.42973-.865-6.63182-1.36354-.30125-.06871-.74519-.48711-.75048-.75135-.04933-2.39939-.0185-4.79968-.00352-7.20082A.37518.37518,0,0,1,35.19368,272.82015Z"/>
          <path class="e02e90f5-2091-4b33-b146-c4c239ae3e4f" d="M35.664,302.71134c-.07488-1.08077-.14181-2.24174-.23959-3.39738-.06343-.76457.39989-.77688.9196-.66415,1.67358.35938,3.3419.74431,5.01459,1.1072,2.07261.4501,4.15138.86762,6.21959,1.33712,2.26639.51353,4.51956,1.08344,6.78332,1.60576,1.76784.40695,3.54625.76632,5.30968,1.18384.26865.0643.67208.3083.70115.51265.22462,1.59167.34793,3.19744.55228,4.79175.11187.8729-.17968,1.07725-1.02705.92752-4.21657-.7496-8.43489-1.48245-12.66291-2.15276-1.96162-.31093-3.95759-.40695-5.921-.70732-1.68679-.25545-3.35774-.63772-5.019-1.03411a1.05015,1.05015,0,0,1-.60161-.75487C35.61647,304.58134,35.664,303.68554,35.664,302.71134Z"/>
          <path class="a1a739aa-760a-41be-932c-d60e1c7394f8" d="M125.9559,83.38492c.1744-2.24965.3673-4.49843.51528-6.749.0414-.63421.27306-.83415.92576-.91783,3.90121-.49768,7.79451-1.057,11.686-1.61458.724-.103,1.17064-.02114,1.25344.865.2572,2.76142.57431,5.51755.8782,8.27457.22462,2.04882.19467,2.20649-1.83038,2.56235-2.65659.46684-5.33964.78746-8.01209,1.15477-1.42432.19554-2.8592.325-4.28.54612-.79186.12332-1.065-.155-1.04116-.92488.03347-1.06053.00882-2.1237.00882-3.18687C126.02461,83.39109,125.99025,83.38845,125.9559,83.38492Z"/>
          <path class="a1a739aa-760a-41be-932c-d60e1c7394f8" d="M118.30584,75.95772a12.6723,12.6723,0,0,0-.51176,2.02768,10.589,10.589,0,0,0-.007,3.238,10.36647,10.36647,0,0,1-.436,6.44684,1.22734,1.22734,0,0,1-.92049.59015,33.093,33.093,0,0,1-11.19278-1.21643c-2.05322-.64036-2.092-.57254-1.58727-2.62312.5831-2.35888,1.21556-4.70367,1.78369-7.06519a12.82433,12.82433,0,0,0,.25193-2.04c.05814-.76633.32063-1.06229,1.1812-.91695,3.07763.51969,6.16674.96275,9.25582,1.41021C116.79255,75.90575,117.47608,75.904,118.30584,75.95772Z"/>
          <path class="e02e90f5-2091-4b33-b146-c4c239ae3e4f" d="M56.55658,226.92243c.05726,1.23317.0643,2.47074.19027,3.69775.09161.902-.2942,1.072-1.06669.97067-2.37826-.30741-4.768-.532-7.13654-.90022-3.24147-.50735-6.46622-1.12306-9.70065-1.678a20.95825,20.95825,0,0,0-2.24261-.27746c-.69586-.04492-.98125-.34706-.93281-1.04379.14181-1.97747.28363-3.955.37523-5.936.03523-.7725.3083-1.04556,1.08255-.8914,2.38354.47214,4.75827,1.01648,7.16207,1.33975,3.79905.51087,7.61836.87906,11.43238,1.26929.60426.06255.8826.28629.8826.87291v2.5738A.39732.39732,0,0,0,56.55658,226.92243Z"/>
          <path class="e02e90f5-2091-4b33-b146-c4c239ae3e4f" d="M188.778,101.494c-1.78369.20963-3.50574.436-5.23306.61218-5.211.53291-10.42468,1.0253-15.63131,1.582-1.39.148-2.7667.44218-4.13817.72052-.68.13741-1.00416-.04316-.94954-.75135.11451-1.43312.20612-2.868.38757-4.2932a1.062,1.062,0,0,1,.68968-.68089c1.33975-.288,2.69184-.517,4.04656-.71435,3.829-.55933,7.67473-1.01208,11.48611-1.67007a54.07308,54.07308,0,0,0,5.53165-1.53c.7857-.22461,1.56-.50736,2.358-.65887.16558-.03171.57783.37876.606.61835.22373,1.8665.37082,3.74179.56375,5.61269A8.65764,8.65764,0,0,0,188.778,101.494Z"/>
          <path class="e02e90f5-2091-4b33-b146-c4c239ae3e4f" d="M74.33538,107.28464c-4.9688-.13565-9.93583-.28627-14.90639-.39813-.87819-.02026-1.09487-.17881-.67208-1.06669a36.00893,36.00893,0,0,0,1.57054-4.01926,1.30893,1.30893,0,0,1,1.49213-1.05348c5.31409.17176,10.62817.34177,15.94579.4184,1.67006.0229,3.34453-.2484,5.01989-.35938a5.049,5.049,0,0,1,.96363.11979,6.91884,6.91884,0,0,1-.27306.92576c-.70114,1.59784-1.44811,3.17718-2.12545,4.78383-.33561.7954-.6624,1.064-1.678.92488a39.49313,39.49313,0,0,0-5.33875-.06782C74.33538,107.42206,74.33538,107.35335,74.33538,107.28464Z"/>
          <path class="e02e90f5-2091-4b33-b146-c4c239ae3e4f" d="M35.12145,250.8204c.00176-.92575.03963-1.855-.01057-2.77815-.044-.82358.30741-.82094.9425-.62275,1.597.4959,3.18951,1.01384,4.81642,1.38644q4.2531.97772,8.5441,1.77928c2.55531.48007,5.13439.83062,7.69322,1.29394a1.1131,1.1131,0,0,1,.74518.7223c.13125,1.26047.15063,2.5324.19643,3.80081.02467.71524-.29243.90726-.97068.66062a4.87751,4.87751,0,0,0-1.20763-.22636c-4.53543-.44131-9.0779-.82358-13.60451-1.33093-2.17477-.24223-4.32842-.68883-6.47767-1.11161a1.096,1.096,0,0,1-.63861-.80068C35.06771,252.67632,35.12056,251.74616,35.12145,250.8204Z"/>
          <path class="a1a739aa-760a-41be-932c-d60e1c7394f8" d="M149.61692,82.84938c-.07135-.95747-.20172-1.76872-.177-2.57557a14.61374,14.61374,0,0,0-1.45338-7.17793c-.51528-1.02882-.31975-1.1125.81124-1.49742,3.20449-1.087,6.38254-2.25142,9.54211-3.46257.59017-.22549.79452-.21844,1.09311.34793,1.17591,2.23116,2.60375,4.32226,3.11113,6.882.30211,1.51327.40165,1.60929-.99535,2.24613q-5.318,2.4245-10.6449,4.83139A12.06652,12.06652,0,0,1,149.61692,82.84938Z"/>
          <path class="e02e90f5-2091-4b33-b146-c4c239ae3e4f" d="M58.5279,173.09543c-.1286,2.01447-.26954,3.955-.36378,5.899-.03347.68441-.40959.78571-.95483.73638-2.01358-.18145-4.0263-.36731-6.03988-.54172-3.65107-.3171-7.29949-.64565-10.95144-.931-1.17327-.09161-1.15213-.052-.976-1.25871.24311-1.65861.4131-3.32869.61923-4.99347.15678-1.2781.34969-1.49742,1.63307-1.39172,1.26136.10393,2.50774.35057,3.76205.52938q6.46092.91431,12.92186,1.82773A2.08094,2.08094,0,0,1,58.5279,173.09543Z"/>
          <path class="a1a739aa-760a-41be-932c-d60e1c7394f8" d="M98.88339,71.82483c-1.97043,3.60086-4.05274,7.03612-4.73186,11.1461-1.58463-.62275-3.08822-1.16094-4.546-1.80131-1.5952-.6985-3.14634-1.50094-4.72216-2.24349-.53643-.2528-.57431-.57782-.45539-1.15654.739-3.6123,2.75173-6.5173,5.04543-9.26727,1.18647-1.42431,1.19354-1.36882,2.81516-.43425,1.95546,1.12659,3.9479,2.18888,5.921,3.28464C98.41039,71.46457,98.59009,71.61784,98.88339,71.82483Z"/>
          <path class="e02e90f5-2091-4b33-b146-c4c239ae3e4f" d="M37.527,196.04562c2.43375.45011,4.67107.95923,6.93483,1.25959,3.01774.40165,6.05663.63861,9.08669.94513.81741.08192,1.63747.15063,2.4549.24311a.88128.88128,0,0,1,.89581,1.094c-.1286,1.84094-.16384,3.6907-.29772,5.53341-.01674.23959-.42721.67383-.60338.64741-2.36856-.33912-4.73714-.69674-7.08721-1.146-2.92438-.56022-5.83113-1.21115-8.74847-1.81541-.76984-.15854-1.56-.24311-2.31308-.45891-.2942-.08368-.73461-.44483-.72492-.66328C37.20462,199.84641,37.37462,198.01429,37.527,196.04562Z"/>
          <path class="a1a739aa-760a-41be-932c-d60e1c7394f8" d="M164.70564,83.30036c-.19467,1.65685-.31271,3.12873-.57254,4.57507a1.54117,1.54117,0,0,1-.89317.96363,30.47924,30.47924,0,0,0-11.15754,6.94187,2.5867,2.5867,0,0,1-.76544.34528,7.7537,7.7537,0,0,1-.11274-.83679c-.096-3.07059-.20346-6.13943-.24663-9.21a1.29176,1.29176,0,0,1,.5752-.99182c3.7964-1.80836,7.62186-3.5577,11.4306-5.34051.6289-.2942,1.00328-.14534,1.14507.50471C164.3392,81.31672,164.52858,82.39046,164.70564,83.30036Z"/>
          <path class="a1a739aa-760a-41be-932c-d60e1c7394f8" d="M95.50451,101.09678A20.51436,20.51436,0,0,1,88.93,94.1461c-.43426-.69322-.75223-1.46307-1.20058-2.14571a1.80144,1.80144,0,0,1,.07134-2.18712c.91608-1.40318,1.81011-2.82132,2.70506-4.23858.3444-.54171.62275-.62627,1.31069-.30829,2.41437,1.11249,4.91331,2.0409,7.35587,3.0979a1.20908,1.20908,0,0,1,.60163.92664,29.527,29.527,0,0,1-.43953,3.95936,5.9043,5.9043,0,0,1-.88525,2.15716C97.26091,97.155,95.92116,98.80572,95.50451,101.09678Z"/>
          <path class="a1a739aa-760a-41be-932c-d60e1c7394f8" d="M86.10248,63.17767a57.73881,57.73881,0,0,0-5.05424,4.76444,12.91312,12.91312,0,0,0-3.14548,6.34642c-.84385-.82886-1.48069-1.50622-2.16951-2.12369-1.7599-1.57846-2.01008-3.49516-1.523-5.70254,1.013-4.58475,3.39915-8.54939,5.53517-12.63119.05637-.111.192-.18057.4369-.40078A28.84713,28.84713,0,0,0,86.10248,63.17767Z"/>
          <path class="a1a739aa-760a-41be-932c-d60e1c7394f8" d="M165.89389,64.1598c.983-.74079,2.03032-1.449,2.98338-2.26551,1.40053-1.20234,2.76229-2.45577,4.08091-3.74619.40166-.39285.62275-.51969,1.07815-.11628a28.67512,28.67512,0,0,1,5.83994,6.58249c.48623.81037.45891,1.25343-.35233,1.82685-2.65836,1.87794-5.2577,3.83957-7.87467,5.77388-.8553.63068-.9971.55405-1.37147-.48534a19.17464,19.17464,0,0,0-3.71624-6.55254c-.18322-.2026-.36642-.40871-.53292-.62539A1.61084,1.61084,0,0,1,165.89389,64.1598Z"/>
          <path class="e02e90f5-2091-4b33-b146-c4c239ae3e4f" d="M74.04647,125.66153c-.62012.21052-1.242.41664-1.86122.63332q-4.1091,1.44412-8.22085,2.88738a2.02686,2.02686,0,0,1-.59808.133,32.99975,32.99975,0,0,1-9.97019-1.11249c-.93633-.26073-1.26223-.59633-.8086-1.65685a27.08716,27.08716,0,0,0,1.04907-3.84925c.35938-1.37939.4413-1.4111,1.83918-.92928a62.51871,62.51871,0,0,0,12.9527,3.06707c1.63042.19731,3.27847.2528,4.91771.38229a5.14461,5.14461,0,0,1,.66151.14093C74.02093,125.45982,74.03413,125.56112,74.04647,125.66153Z"/>
          <path class="a1a739aa-760a-41be-932c-d60e1c7394f8" d="M180.78794,47.2821c.29859.14886.51528.24575.72318.35938a24.05751,24.05751,0,0,1,6.51907,5.28237,9.97528,9.97528,0,0,0,2.22058,1.61546c1.39526.87643,1.45867,1.38555.25368,2.4681-1.22524,1.09928-2.454,2.19592-3.64842,3.32956-.56991.54171-.79893.4871-1.31685-.17793a18.87926,18.87926,0,0,0-2.96578-2.95256c-1.45074-1.18825-2.979-2.29106-4.54159-3.32868-.8553-.56638-.843-1.04644-.325-1.82773.92487-1.39789,1.75463-2.85832,2.63546-4.28615A3.34565,3.34565,0,0,1,180.78794,47.2821Z"/>
          <path class="e02e90f5-2091-4b33-b146-c4c239ae3e4f" d="M100.8142,88.86989c2.08846.50913,3.90121.98213,5.72895,1.38292.843.18409.77689.64653.488,1.19969a26.97042,26.97042,0,0,0-1.41286,2.6108,4.33008,4.33008,0,0,0-.31182,2.23644,5.4936,5.4936,0,0,1-.80331,4.00781c-.71084,1.19706-1.279,2.47779-1.96691,3.68894-.13389.23607-.61834.51706-.80331.44131a39.27729,39.27729,0,0,1-3.61584-1.685c-1.22349-.65711-1.47012-1.353-.8324-2.58966a23.01108,23.01108,0,0,1,2.15892-3.46962,6.71638,6.71638,0,0,0,1.15037-5.04807A15.57564,15.57564,0,0,1,100.8142,88.86989Z"/>
          <path class="e02e90f5-2091-4b33-b146-c4c239ae3e4f" d="M120.79155,107.80435c-1.9801.03876-1.9.03083-2.04177-1.604-.20612-2.35624.89933-4.30642,1.75111-6.34819.95484-2.29017,1.52385-4.58563.60162-7.06959-.562-1.5124-.399-1.59519,1.16271-1.68063a20.69748,20.69748,0,0,0,2.74294-.39462c.80683-.15767,1.20762.0828,1.54676.887a6.49728,6.49728,0,0,1-.32854,5.74217,22.64742,22.64742,0,0,0-2.83541,9.4681c-.01234.28539-.47829.71171-.8042.79539A10.45528,10.45528,0,0,1,120.79155,107.80435Z"/>
          <path class="e02e90f5-2091-4b33-b146-c4c239ae3e4f" d="M142.27075,101.75652c.14182-.47213.31886-.93721.42015-1.41814a31.75481,31.75481,0,0,0,.4598-11.52222c-.13831-.88789.19994-1.16182.92312-1.3653,1.604-.45275,3.19214-.97244,4.80672-1.38555.21139-.05461.71611.31181.78659.56549a6.10861,6.10861,0,0,1,.17088,1.83214c-.11188,2.83013-.2387,5.66114-.41929,8.48862a1.74483,1.74483,0,0,1-.58751,1.21643c-2.05852,1.32566-4.17163,2.56852-6.26628,3.83868Q142.417,101.88117,142.27075,101.75652Z"/>
          <path class="e02e90f5-2091-4b33-b146-c4c239ae3e4f" d="M95.49572,83.547c.59807-1.95369,1.06228-3.74531,1.69912-5.47351.68175-1.855,1.50622-3.66163,2.32805-5.46206a.96162.96162,0,0,1,.87468-.28011c1.27193.38845,2.51213.88436,3.77879,1.29307.52674.17.75665.42281.59544.97156-.54436,1.8665-1.10986,3.72594-1.62337,5.60036-.45891,1.68151-.91519,3.36919-1.264,5.07626-.15062.73549-.44924.84384-1.04731.621-1.53706-.57343-3.07677-1.138-4.6006-1.74406A3.16707,3.16707,0,0,1,95.49572,83.547Z"/>
          <path class="e02e90f5-2091-4b33-b146-c4c239ae3e4f" d="M118.40713,88.22864c.23429-.79715.40343-1.48068.63509-2.14131a7.76534,7.76534,0,0,0,.05462-4.63848,8.377,8.377,0,0,1,.2387-4.95911.99813.99813,0,0,1,.724-.54083c1.64275-.074,3.28817-.06254,4.93269-.10746.69587-.0185.68969.38492.61571.87643-.20083,1.32126-.46069,2.639-.57606,3.96729-.17529,2.0453-.32416,4.09853-.33472,6.15-.0053,1.04467-.3497,1.42255-1.3512,1.4023C121.74725,88.20486,120.15031,88.22864,118.40713,88.22864Z"/>
          <path class="e02e90f5-2091-4b33-b146-c4c239ae3e4f" d="M142.74638,84.91053c-.34617-3.52158-.65359-6.91632-1.03234-10.30225-.08631-.77778.044-1.08167.8782-1.22084a19.04826,19.04826,0,0,0,3.25292-.92048c.68176-.244.93546-.08192,1.21731.57607,1.33711,3.12256,1.3283,6.40368,1.23494,9.69625a1.02325,1.02325,0,0,1-.44483.79363c-1.5538.51881-3.12962.97333-4.70629,1.419A.58775.58775,0,0,1,142.74638,84.91053Z"/>
          <path class="a1a739aa-760a-41be-932c-d60e1c7394f8" d="M180.64964,68.61331c.288,1.41462.55052,2.63634.77162,3.86511a.77788.77788,0,0,1-.23255.54q-5.215,5.67346-10.45025,11.32667c-.05726.06254-.18586.06078-.49063.14974.0458-.52762.059-.97333.12333-1.41022a33.11264,33.11264,0,0,0,.77162-5.68227A2.94391,2.94391,0,0,1,172.76,74.42154c2.40028-1.58639,4.64377-3.408,6.95419-5.13C179.97933,69.09072,180.25328,68.89958,180.64964,68.61331Z"/>
          <path class="b5a66726-9e6c-4da7-9eb1-629f576a2c9a" d="M135.572,131.01437c-1.95282.7073-3.836,1.38555-5.7175,2.0726a3.04677,3.04677,0,0,1-4.19454-1.50623c-.65974-1.11515-1.28074-2.25494-1.88675-3.40092-.27394-.51793-.421-1.11954.37964-1.29748,1.96339-.436,3.93734-.83855,5.91922-1.19353a1.34877,1.34877,0,0,1,1.05349.3083c1.41375,1.478,2.77552,3.00629,4.14873,4.52309A3.248,3.248,0,0,1,135.572,131.01437Z"/>
          <path class="e02e90f5-2091-4b33-b146-c4c239ae3e4f" d="M87.27223,64.15275c.25016.22373.525.45715.78659.70643,1.57493,1.50271,1.57141,1.50183.10481,3.10319a26.14579,26.14579,0,0,0-4.76,7.50561A8.066,8.066,0,0,0,83.105,76.8685c-.1286.584-.38053.74255-.93017.34793-.80156-.57783-1.69207-1.04115-2.4584-1.66038a1.388,1.388,0,0,1-.451-1.14509,17.221,17.221,0,0,1,7.4466-9.95256C86.85472,64.365,87.0106,64.29457,87.27223,64.15275Z"/>
          <path class="e02e90f5-2091-4b33-b146-c4c239ae3e4f" d="M164.24232,76.25544a22.01459,22.01459,0,0,0-.89758-2.71033c-.83329-1.7467-1.73348-3.46433-2.6795-5.15377-.58928-1.05348-.63243-1.04467.495-1.62779,1.00151-.517,2.00038-1.04379,2.97194-1.61193.488-.28539.75487-.20171,1.11161.23518a23.2384,23.2384,0,0,1,4.00341,7.68089,1.00621,1.00621,0,0,1-.37612.887C167.3957,74.743,165.88066,75.453,164.24232,76.25544Z"/>
          <path class="a1a739aa-760a-41be-932c-d60e1c7394f8" d="M59.58314,163.79028c-.32238,2.55531-.59368,4.82258-.89933,7.08456-.09865.732-.65622.63686-1.19266.57078q-4.99168-.617-9.986-1.2085c-.71436-.08368-1.4384-.09161-2.14835-.18674-.19466-.02467-.36291-.23871-.5426-.36643.15327-.148.288-.39637.4642-.43161,4.30464-.8685,8.11338-3.0292,12.137-4.63056C58.0866,164.354,58.76836,164.1021,59.58314,163.79028Z"/>
          <path class="e02e90f5-2091-4b33-b146-c4c239ae3e4f" d="M176.62776,53.72366c2.50157,2.14571,4.91683,4.15313,7.25633,6.24689,1.08167.96715,1.604,1.61721.06341,2.75613-.41222.30477-.78218.66768-1.1715,1.00063-.38668.3312-.77688.66239-1.26225,1.07726a3.68944,3.68944,0,0,1-.65181-.74342,14.88042,14.88042,0,0,0-6.06542-6.40016c-.835-.49679-.81654-.9328-.19115-1.58726C175.30384,55.34527,175.92571,54.54635,176.62776,53.72366Z"/>
          <path class="e02e90f5-2091-4b33-b146-c4c239ae3e4f" d="M67.23672,87.48081c.79716-1.17063,1.52384-2.25229,2.277-3.31546.0731-.10306.31182-.12949.47036-.12861,2.80459.03083,5.6171.21757,8.40845.04669a2.437,2.437,0,0,1,2.698,1.49477c.3083.6069.7452,1.146,1.09048,1.73613.089.1515.13831.45451.052.5514a.86276.86276,0,0,1-.60514.24312c-2.45754-.0828-4.91419-.20524-7.37171-.28715-2.12193-.07135-4.24475-.10042-6.36844-.15415A4.01016,4.01016,0,0,1,67.23672,87.48081Z"/>
          <path class="a1a739aa-760a-41be-932c-d60e1c7394f8" d="M182.30209,43.89705c.52147-1.323,1.03059-2.61256,1.58638-4.02278a2.48255,2.48255,0,0,1,.81654.37435c2.29986,2.29458,5.26475,3.8704,7.20523,6.53668a38.02035,38.02035,0,0,1,2.19064,3.69687c.09865.17617.037.44218.05022.6668-.08457.07311-.17.148-.25457.22285a63.1942,63.1942,0,0,0-5.45326-4.37512A60.8241,60.8241,0,0,0,182.30209,43.89705Z"/>
          <path class="e02e90f5-2091-4b33-b146-c4c239ae3e4f" d="M165.62521,87.55392c.10833-.9055.19379-1.67623.29421-2.44608a10.60246,10.60246,0,0,0-.74871-5.61269c-.09336-.222-.03524-.71435.11451-.80156,1.36706-.7954,2.76936-1.52913,4.38128-2.3994a22.85533,22.85533,0,0,1-.02554,3.1992c-.28714,1.84711-.91693,3.659-1.04379,5.50875-.1154,1.68944-1.33711,1.93695-2.4038,2.50422C166.08853,87.56361,165.9344,87.531,165.62521,87.55392Z"/>
          <path class="e02e90f5-2091-4b33-b146-c4c239ae3e4f" d="M90.15344,84.63836c-.48533.75576-.89933,1.449-1.35913,2.1096-.54788.78746-1.14069,1.54234-1.7,2.32188-.32327.451-.69058.54788-.92665.00264a29.14084,29.14084,0,0,0-6.653-8.9167c-.10481-.10306-.12507-.29244-.273-.66768.43864.089.7628.059.94777.20612A28.433,28.433,0,0,0,89.307,84.27545C89.55623,84.35737,89.7923,84.48157,90.15344,84.63836Z"/>
          <path class="a1a739aa-760a-41be-932c-d60e1c7394f8" d="M79.01087,83.04845c-1.626,0-3.1948-.02114-4.76269.00881-1.09223.02026-2.18447.12331-3.27758.16383-.21493.00793-.54172-.03611-.62187-.17088a.75411.75411,0,0,1,.11715-.64037c1.14068-1.6639,2.2708-3.33661,3.47314-4.9547.6624-.89493,2.02328-.776,2.1968.27659.34176,2.08141,1.69912,3.44671,2.87064,4.97584C79.03993,82.749,79.01087,82.83616,79.01087,83.04845Z"/>
          <path class="e02e90f5-2091-4b33-b146-c4c239ae3e4f" d="M184.1765,80.74506c-1.64893.1841-4.26149.48182-6.87758.75664a3.21972,3.21972,0,0,1-.82269-.13388,2.31485,2.31485,0,0,1,.31093-.7038c.83944-.89845,1.69826-1.78369,2.58351-2.63986a1.39493,1.39493,0,0,1,.865-.44042c2.11578.07487,4.228.24047,6.34289.31093.7399.02466.93017.29772.89759.998C187.39069,80.6975,187.37394,80.73625,184.1765,80.74506Z"/>
          <path class="a1a739aa-760a-41be-932c-d60e1c7394f8" d="M192.03094,57.61167a6.9111,6.9111,0,0,1-2.65307,8.19265c-.6941.43425-1.36265.91255-2.05589,1.35209a8.3575,8.3575,0,0,1-.86761.41488c-.12333-1.29219-.23959-2.42406-.325-3.56034a.60114.60114,0,0,1,.24841-.42016c2.14043-1.54939,3.63522-3.68894,5.26034-5.7087A1.95221,1.95221,0,0,1,192.03094,57.61167Z"/>
          <path class="a1a739aa-760a-41be-932c-d60e1c7394f8" d="M189.27126,68.53668q-.52059,2.43507-1.04205,4.86838c-.022.09865-.09161.1973-.08542.29332.11892,1.91934-.74783,2.66981-2.6795,2.5324a24.85045,24.85045,0,0,0-3.5709.30037,3.70793,3.70793,0,0,1-.88347-.18938c2.79931-2.7209,4.83667-5.92186,7.95836-8.02442C189.07043,68.39134,189.17086,68.46357,189.27126,68.53668Z"/>
          <path class="e02e90f5-2091-4b33-b146-c4c239ae3e4f" d="M181.88546,44.75939A35.34878,35.34878,0,0,1,189.1418,49.338c1.14421.96892,2.47074,1.72292,3.6088,2.69712,1.25166,1.072,1.15918,1.56876-.28188,2.6425-2.5685-2.13779-5.1247-4.31785-7.7496-6.41424a11.18238,11.18238,0,0,0-2.51654-1.35209c-1.1125-.48622-1.16005-.52762-.58136-1.58286C181.70136,45.18043,181.76391,45.02452,181.88546,44.75939Z"/>
          <path class="ec090972-19d5-4c97-8456-f659a4145df7" d="M95.85861,23.85891c1.915-.03436,2.27609.1656,2.4963,1.40757a2.85788,2.85788,0,0,1-1.94664,3.11816A2.55627,2.55627,0,0,1,93.431,27.717a2.24647,2.24647,0,0,1-.19994-3.01158,1.78241,1.78241,0,0,1,.99976-.70819A8.15136,8.15136,0,0,1,95.85861,23.85891Zm.73285,1.079c-1.05349.17265-1.48157.60514-1.48772,1.34856-.0053.6897.47829.92488,1.09136.9425a.99158.99158,0,0,0,1.10105-1.24462C97.24153,25.57478,96.79318,25.21892,96.59146,24.93793Z"/>
          <path class="f024a7cf-b53b-4f3c-9d98-bf066de0681f" d="M93.81506,29.59227a6.2617,6.2617,0,0,1-5.10268-.62892,1.04291,1.04291,0,0,1-.377-.85617c.23871-1.18913.39373-2.454,1.8982-2.85391a17.69267,17.69267,0,0,0,2.18449-.95482C91.27825,26.689,91.76361,28.35293,93.81506,29.59227Z"/>
          <path class="e02e90f5-2091-4b33-b146-c4c239ae3e4f" d="M182.16379,71.66452a6.91355,6.91355,0,0,0-.14887-1.7282,2.83678,2.83678,0,0,1,1.38026-3.69951,12.98251,12.98251,0,0,0,1.58463-1.44545,9.89853,9.89853,0,0,1,.296,1.249c.0643.70907.096,1.42343.09336,2.13515a1.04713,1.04713,0,0,1-.24311.7258c-.99887.82534-2.03562,1.60665-3.06,2.40292C182.09949,71.42494,182.133,71.54384,182.16379,71.66452Z"/>
          <path class="f024a7cf-b53b-4f3c-9d98-bf066de0681f" d="M99.09833,27.2607c.05726-.79716.08368-1.59784.2026-2.38531a.74163.74163,0,0,1,.63509-.318,2.57136,2.57136,0,0,1,.86057.74166c-.4598.74167-1.00943,1.42784-1.537,2.12634C99.20577,27.3708,99.15207,27.31531,99.09833,27.2607Z"/>
          <path class="e1b29307-15c9-4c3b-a5d0-0f436db97759" d="M194.12467,55.17c-.23429.83767-.39991,1.43312-.59369,2.13162C192.88887,56.43486,192.98927,56.064,194.12467,55.17Z"/>
          <path class="ec090972-19d5-4c97-8456-f659a4145df7" d="M135.24255,15.74729c1.01121-.02466,1.93785.14181,2.34655,1.234a2.51548,2.51548,0,0,1-.7725,3.2036,3.85774,3.85774,0,0,1-5.52813-.28274,5.56633,5.56633,0,0,1-.813-2.30163.763.763,0,0,1,.39725-.61306c1.41461-.53114,2.84863-1.00944,4.27822-1.50447C135.18266,15.57024,135.21261,15.65921,135.24255,15.74729Zm1.441,2.388a1.46887,1.46887,0,0,0-1.36529-1.61281c-1.05787-.02731-1.75989.532-1.78016,1.41462a1.55463,1.55463,0,0,0,1.44458,1.66038A1.72586,1.72586,0,0,0,136.68359,18.13524Z"/>
          <path class="f024a7cf-b53b-4f3c-9d98-bf066de0681f" d="M129.66246,17.57062c-.60425,1.91494.39287,2.98075,1.50711,4.12407a2.80421,2.80421,0,0,1-.79715.20348c-1.58816-.20172-3.17717-.3999-4.75388-.67649-.3488-.05989-.64213-.42192-.96188-.64653a5.08045,5.08045,0,0,1,.69673-.67472c.97067-.63861,1.9493-1.26224,2.949-1.85152A8.80875,8.80875,0,0,1,129.66246,17.57062Z"/>
          <path class="f024a7cf-b53b-4f3c-9d98-bf066de0681f" d="M137.81194,21.00588c1.3054-1.124,1.257-2.52976,1.0843-3.9849-.01849-.15415.40077-.52674.59722-.51265a24.888,24.888,0,0,1,3.04064.399.85736.85736,0,0,1,.45891.70731,3.17543,3.17543,0,0,1-1.988,2.42759c-.96011.43689-1.94664.813-2.92,1.21643C137.99253,21.17412,137.90178,21.08956,137.81194,21.00588Z"/>
        </g>
      </g>
    </g>
  </g>
</svg>
