<svg xmlns="http://www.w3.org/2000/svg" xmlns:xlink="http://www.w3.org/1999/xlink" width="430.34827" height="392.3581" viewBox="0 0 430.34827 392.3581">
  <defs>
    <style>
      .fb06e553-710d-4eeb-ac07-70a7a85262c7 {
        fill: #131415;
      }

      .bc42f6cf-f3ed-44da-a227-d29e918e50d8 {
        fill: url(#ac394594-a89d-4594-ab5a-734c1f987420);
      }

      .b6a37ea1-b6ba-4b3b-a115-0302068b9626 {
        fill: #1571b7;
      }

      .a11d1da1-dc6f-44d0-8a18-9ab2500b6414 {
        fill: #c53646;
      }

      .fba86a35-36db-449b-94a1-6afadc6c510a {
        fill: #d8d9de;
      }

      .f2819b7a-0365-4840-9e41-6e7363bde7b9 {
        fill: url(#b7fa2569-cc8e-4644-8128-71a96c067a24);
      }

      .e1dad115-8ed8-4748-ba1c-d4aafb2698df {
        fill: #9b9c9e;
      }

      .a49ff70e-40a6-4bac-b925-33ad7f0168f5 {
        fill: url(#edeb5e82-9568-4c6e-a40d-26aeaf5ffbcf);
      }

      .ff948813-7689-4cd5-9772-f8125de68ac7 {
        fill: url(#b2a483f4-0638-4a17-8838-cc29c739599d);
      }

      .ac9fbcf8-50a6-437c-a0ea-3934a8704afa {
        fill: #333334;
      }

      .aaef7fc2-818c-4708-af82-92f2728bf684 {
        fill: #5483b2;
      }

      .b59246d0-a4dc-4318-a78d-ada37d24c162 {
        fill: #973b36;
      }

      .a533a755-8f95-44b5-9620-0f09a83cca99 {
        fill: #fff;
      }

      .eb4f9db8-923c-4639-87d4-523b3e6c3bc8 {
        fill: url(#b984ef7a-1cdf-4664-8691-371cf055ac87);
      }

      .ba1430f1-3db9-4413-9582-6f200c6f77b0 {
        fill: #cf6a4c;
      }
    </style>
    <linearGradient id="ac394594-a89d-4594-ab5a-734c1f987420" data-name="Adsız degrade 8" x1="49.20664" y1="211.72828" x2="222.99309" y2="211.72828" gradientTransform="matrix(1, 0, 0, -1, 44, 394.94345)" gradientUnits="userSpaceOnUse">
      <stop offset="0" stop-color="#ffdf00"/>
      <stop offset="0.3091" stop-color="#ffdf00"/>
      <stop offset="1" stop-color="#ffdf00"/>
    </linearGradient>
    <linearGradient id="b7fa2569-cc8e-4644-8128-71a96c067a24" x1="30.66533" y1="110.80961" x2="100.40282" y2="110.80961" xlink:href="#ac394594-a89d-4594-ab5a-734c1f987420"/>
    <linearGradient id="edeb5e82-9568-4c6e-a40d-26aeaf5ffbcf" x1="35.35926" y1="300.21704" x2="116.24595" y2="300.21704" xlink:href="#ac394594-a89d-4594-ab5a-734c1f987420"/>
    <linearGradient id="b2a483f4-0638-4a17-8838-cc29c739599d" x1="211.37392" y1="131.84343" x2="280.60484" y2="131.84343" xlink:href="#ac394594-a89d-4594-ab5a-734c1f987420"/>
    <linearGradient id="b984ef7a-1cdf-4664-8691-371cf055ac87" x1="127.86887" y1="309.89216" x2="197.30818" y2="309.89216" xlink:href="#ac394594-a89d-4594-ab5a-734c1f987420"/>
  </defs>
  <g id="b793cb65-3b0f-476e-b19e-c19b10a71e66" data-name="katman 2">
    <g id="aae4d1df-0387-404d-9403-fd02293add4b" data-name="katman 1">
      <g>
        <path class="fb06e553-710d-4eeb-ac07-70a7a85262c7" d="M430.20193,170.35886a136.884,136.884,0,0,0-7.26432-37.63609c-5.94981-17.36519-14.59781-33.13914-28.08869-45.93818-6.50331-6.15737-13.8368-11.06944-22.41563-13.8368-10.10085-3.18247-19.9942-2.69817-29.4032,2.42144-8.78638,4.7737-14.73619,12.17639-19.164,20.89357-4.98126,9.68576-7.47187,20.13255-8.648,30.92525a4.61906,4.61906,0,0,1-1.52206,3.04409c-5.258,4.91207-10.3776,10.03168-15.77394,14.80537-8.37127,7.47187-17.43438,13.8368-28.50382,16.81171-3.59758.96857-7.19513,2.21389-10.93106,3.32082-.41511-2.07552-.83022-3.9435-1.24531-5.74226-.20754-.89939.06919-1.3145.89939-1.7296,1.868-.89939,3.66674-1.868,5.46553-2.90574,9.409-5.11961,18.5413-10.65433,26.705-17.78029a23.285,23.285,0,0,0,7.26432-10.86188c2.76736-9.06311.69184-17.43437-3.4592-25.59808a18.24522,18.24522,0,0,0-10.8619-9.409,40.02649,40.02649,0,0,0-7.33351-2.07552c-6.15737-.8994-12.31474-1.45287-18.47214-2.07552-1.31449-.13837-2.00633-.48429-2.00633-1.79879a4.84788,4.84788,0,0,0-.20754-.96857,60.72884,60.72884,0,0,0-17.57273-30.64852c-12.17639-11.76128-26.56666-18.47213-43.7243-18.26458-10.10087.13837-18.95642,3.52839-26.08238,11.00026-1.31449,1.38368-2.49063,2.83654-3.80512,4.35859-.34592-.55347-.62265-1.03776-.8994-1.45286-5.1888-8.30208-10.17-16.67334-15.5664-24.76787A87.77592,87.77592,0,0,0,132.36476,6.53112c-5.81145-5.11961-12.59148-7.61024-20.40928-6.08819-5.258.96858-9.75495,3.66675-14.32108,6.29575-6.019,3.39-9.27066,8.50963-10.86189,14.94374-2.35225,9.409-2.21389,18.95642-1.24532,28.43463,1.10695,11.06944,3.66676,21.86214,6.43412,32.58566a3.30793,3.30793,0,0,1-.34592,2.14471c-2.97492,4.63532-6.15737,9.13229-8.92473,13.906a41.77062,41.77062,0,0,0-5.53472,15.774,2.68515,2.68515,0,0,1-2.21389,2.69817C57.30015,122.1376,39.86578,127.3264,22.98489,134.314c-5.39636,2.21389-10.72352,4.70452-15.22048,8.50964C3.12908,146.69793-.26094,151.40245.0158,157.629a116.74046,116.74046,0,0,0,2.00633,18.95641c2.83655,13.62926,10.65434,21.58542,24.97543,23.17664,6.50329.69184,13.00659,1.38368,19.50989,1.52206,10.72352.27673,21.51622.06919,32.30893.06919H90.78521c-.06918-.06919.06919.06919.06919.20754,0,7.33351.06919,14.59783.06919,21.93134a2.72415,2.72415,0,0,1-1.03776,1.66041c-1.45287,1.38368-3.11328,2.55982-4.42777,4.08185a6.65632,6.65632,0,0,0-1.52205,3.32083,60.70668,60.70668,0,0,0-.34592,7.95616c0,2.42144.41511,2.90573,2.83655,3.59757-.06919.55347-.06919,1.10695-.13836,1.66042A186.796,186.796,0,0,0,84.48949,276.833a6.85451,6.85451,0,0,1-.27673,2.35225c-3.52839,14.11353-7.126,28.29625-10.65434,42.40979-.4151,1.59122-.69184,3.18247-1.03776,4.77369-.69184-.13838-1.17613-.27673-1.66042-.34592-2.69818-.55346-2.83654-.4843-3.25165,2.21387-.4151,2.83653-.761,5.6731-1.10694,8.50963a3.04152,3.04152,0,0,1-4.35859,2.28306,10.77306,10.77306,0,0,0-2.83655-1.03776c-4.98124-.96859-10.44678,2.83653-12.31475,8.16371C44.98542,352.036,49.8283,362.34443,57.85365,362.552c1.24531.06917,2.5598.06917,3.80512.20755a2.53716,2.53716,0,0,1,1.45286.62267c2.629,3.32082,6.08819,4.01266,9.89331,2.76736a31.71639,31.71639,0,0,0,6.22657-3.32082,4.4025,4.4025,0,0,1,3.11328-.761,6.08253,6.08253,0,0,0,6.98759-4.01266c.69184-2.14469,1.38368-4.70451.96857-6.78-1.03776-4.98126.83021-8.99392,3.04409-13.145,2.00633-3.80512,1.868-3.80512-1.93715-5.94981-.34592-.20754-.83021-.83021-.761-1.10692.55347-2.90574,1.31449-5.74227,1.93715-8.57882.27674.06919.41511.06919.48429.13838,1.03776,1.10695,2.00633,2.14471,3.04409,3.25166,5.74228,6.019,11.34617,12.17639,19.164,15.774a2.36761,2.36761,0,0,1,.96857,1.31452c.55347,2.35227,1.17613,4.7045,1.59123,7.12594a64.27633,64.27633,0,0,1,.34592,17.08846c-.13836,1.31451.27674,2.00635,1.52205,2.28306.83021.20754,1.59123.4843,2.76736.83022a20.52,20.52,0,0,1-1.93715,1.79876c-4.98125,3.25166-6.64167,8.02533-6.15738,13.69843.27674,3.32082,1.79879,5.32718,4.7737,5.88064a34.90212,34.90212,0,0,0,16.67335-.69184c3.25164-1.03776,6.22656-2.28306,8.44044-4.98126a11.82543,11.82543,0,0,1,3.87431-2.69819c2.00633-1.03776,2.76736-2.28306,2.28307-4.497-.20755-.89938-.69184-1.79877-.89939-2.69819-.41511-1.868-.761-3.80512-1.10695-5.6731-.13836-1.03776.34592-1.66043,1.38368-2.14469.83021-.41509,2.07552-1.2453,2.14471-2.00635.34592-4.63534,2.21389-8.71717,4.151-12.799a2.12339,2.12339,0,0,1,1.52205-.96859c1.93715-.06917,3.80512.06916,5.74227,0,1.03776,0,1.38368.34592,1.45287,1.31451.20755,3.04411.62265,6.019.761,9.06309a3.35643,3.35643,0,0,0,2.00633,3.25165,1.40119,1.40119,0,0,1,.55346,1.31452c-.41511,4.35858-.83021,8.71716-1.31449,13.07579-.13836,1.31451.41511,1.79877,1.7296,1.93714,3.87431.41509,7.67943.89939,11.48455,1.52206,7.19513,1.17614,14.25191,2.629,21.447,3.66674a55.86549,55.86549,0,0,0,19.164-.83021,2.27642,2.27642,0,0,0,2.00633-1.7296,12.87378,12.87378,0,0,0-11.76128-16.11987,36.978,36.978,0,0,1-5.46553-1.31451c.06919-.96859.13837-1.66043.20754-2.35227.34592-4.56613.69184-9.20147,1.03776-13.76764a2.72657,2.72657,0,0,1,2.69817-2.83652c7.95616-1.24531,15.91232-2.83653,23.38419-5.81148,16.25824-6.36493,26.08238-17.84946,27.812-35.62976.55346-5.60391-1.17614-8.92473-5.39635-10.79271-.06919,0-.13837-.20754-.13837-.27673v-.34592c3.80512-7.81778,7.61024-15.63559,11.34617-23.52256a6.93045,6.93045,0,0,1,4.98126-4.01267,17.15031,17.15031,0,0,1,4.497-.83021c3.80512,0,7.61024.48429,11.41536.20754,8.57881-.62265,17.22681-1.52206,25.80562-2.42144a17.29453,17.29453,0,0,0,8.92473-3.87431c4.151-3.25165,5.94983-7.33351,4.35859-12.59149-.96857-3.11328-2.00634-6.15738-2.90574-9.27066a7.03838,7.03838,0,0,1-.13838-3.18246c.4843-2.83655,1.45287-5.60391-1.03776-8.09454-.13837-.13838-.13837-.4843-.27673-.761-1.10695-2.76736-2.07552-5.53472-3.39-8.23289a14.09211,14.09211,0,0,0-8.02535-7.541c-2.76736-1.03776-5.6731-1.59123-8.92473-2.49063.27673-2.28307.62265-4.77369,1.03776-7.26432.06919-.27673.89938-.62265,1.31449-.55347a95.80013,95.80013,0,0,1,31.06361,11.00026,6.60608,6.60608,0,0,1,1.66042,1.45286c1.66041,2.2139,3.18246,4.497,4.91206,6.64167,7.47189,9.27065,16.05068,17.08846,27.18933,21.65459,11.96883,4.91207,23.73011,4.7045,34.93792-2.14471,7.61024-4.63534,13.00659-11.41536,17.08846-19.30233C428.88742,204.88168,430.96294,187.93159,430.20193,170.35886ZM274.60711,234.49242a2.078,2.078,0,0,1-.69184-1.45287c-.55346-4.7045-1.03776-9.33984-1.52206-14.04434-.20754-1.66041-1.17613-2.28307-2.76736-1.868-.48429.13838-.89938.34592-1.59122.62265-.27673-1.66041-.62265-3.32082-.89938-4.91206-.4843-2.76737-.89939-5.53473-1.3145-8.30209a2.15606,2.15606,0,0,1,.41511-1.66041c.96857-.62265,1.59123-.06919,2.07552.89939q3.83973,7.36809,7.887,14.73618c1.17613,2.14471,2.69817,4.151,3.94349,6.29575a4.39213,4.39213,0,0,1,.34592,2.14471c-.20754,2.42144-.83021,4.91207-.69184,7.33351.13838,1.7296,1.31449,3.32082,1.93715,4.84288C279.58835,237.74408,277.09774,236.15283,274.60711,234.49242Zm18.818,10.8619c-3.25166-1.66041-6.57248-3.39-10.03168-5.1888,2.629.34592,4.91206.62265,7.19513.96857a2.21588,2.21588,0,0,1,1.31449.69184c.69184.96857,1.2453,2.07552,1.868,3.11328A1.83468,1.83468,0,0,0,293.42515,245.35432Z"/>
        <path class="bc42f6cf-f3ed-44da-a227-d29e918e50d8" d="M245.48064,123.24455c.69184,2.55981,1.38368,4.91207,2.00633,7.19513,2.83655,11.277,5.60391,22.554,8.44046,33.76179.34592,1.38368-.20754,1.66041-1.31449,2.00633q-4.151,1.24533-8.30208,2.69817a4.7067,4.7067,0,0,0-3.32083,3.87431c-1.2453,5.81145-1.93714,11.62291-.48429,17.50355,2.28306,9.409,9.68576,14.52864,19.30233,13.28333.4843-.06919.89938-.06919,1.59122-.13837.4843,2.9749.96858,5.88064,1.45287,8.78637.69184,4.28942,1.31449,8.57882,2.07552,12.86823a2.295,2.295,0,0,1-.96857,2.55982,62.11359,62.11359,0,0,1-22.34642,11.83047c-14.667,4.56615-29.61075,4.7045-44.48533,1.59122-14.73619-3.11328-29.334-6.78-44.001-10.10087-12.17639-2.76736-24.35277-5.53472-36.66752-8.02535a61.43493,61.43493,0,0,0-20.75521-.96857c-1.38368.20755-2.76736.55347-4.22022.83022v-5.1888c-.06919-5.1888-.20756-10.3776-.27674-15.5664,0-.4843,0-1.17614.27674-1.45287,3.59756-2.90574,4.98124-7.05678,5.94982-11.34617,1.79879-7.74862,1.59124-15.5664.96858-23.45338-.27674-3.73593-.8994-7.47186-1.3145-11.20781a2.50432,2.50432,0,0,1,.69184-1.868c11.41537-9.06311,23.52257-17.01927,37.221-22.34644,2.35225-.89939,4.84288-1.59123,7.26432-2.35225a1.269,1.269,0,0,1,1.79879.69184c8.37127,15.774,22.20806,24.21441,38.88141,28.573,10.03168,2.629,20.06336,2.35225,29.74912-1.7296a34.93336,34.93336,0,0,0,14.94375-11.69209c4.84288-6.64167,9.82414-13.145,14.80537-19.71745C244.7888,124.07476,244.99634,123.798,245.48064,123.24455ZM232.82,210.13966c-.89939-5.46553-1.7296-11.34617-2.83655-17.22681a95.0695,95.0695,0,0,0-2.42144-9.96249,6.28,6.28,0,0,0-3.73593-4.28942c-4.35859-1.59122-9.755-1.2453-12.17639,4.151a73.47967,73.47967,0,0,0-3.4592,10.8619,19.94441,19.94441,0,0,0,.06919,11.89966c2.42144,6.84921,7.3335,11.89965,13.28333,15.70477,3.87431,2.49063,8.99392.06919,10.23923-4.42777C232.33568,214.775,232.40487,212.69946,232.82,210.13966Z"/>
        <path class="b6a37ea1-b6ba-4b3b-a115-0302068b9626" d="M111.60959,321.04161a20.9219,20.9219,0,0,0,10.44679,4.91207c7.8178,1.17612,14.18272-2.28306,18.47213-9.82413,3.18247-5.6731,4.35859-11.89966,4.98125-18.26458,1.59123-14.94375,1.66041-29.95666,1.522-44.9696v-1.38368c.96857.69184,1.7296,1.107,2.42144,1.66041,2.69817,2.2139,5.39636,4.497,8.02535,6.71086,1.31449,1.10695,1.7296,1.10695,2.76736-.34592a39.37291,39.37291,0,0,0,6.57248-18.057,2.62694,2.62694,0,0,0-1.7296-3.11328,59.23705,59.23705,0,0,1-7.95616-4.35858c2.629.62265,5.258,1.31449,7.887,1.93714,12.86822,3.25166,25.80564,6.50329,38.9506,8.44046,17.57273,2.55981,34.592,1.03776,50.78105-6.71086a21.63236,21.63236,0,0,1,3.87431-1.59122c-1.45287,1.31449-2.83655,2.69817-4.42777,3.94349a3.44665,3.44665,0,0,0-1.45287,3.39c.4843,5.39635.761,10.79271,1.2453,16.18906a2.76965,2.76965,0,0,0,.83022,1.868c.27673.20755,1.2453-.27673,1.7296-.69184,1.17614-.89938,2.2139-1.868,3.73593-3.11328-.83021,3.18247-1.59122,5.94983-2.35225,8.71719a222.1388,222.1388,0,0,0-7.05678,39.22734c-.27673,3.4592-.20754,6.98759-.34592,10.516a2.48447,2.48447,0,0,0,.13838,1.2453,6.46547,6.46547,0,0,0,1.2453,1.10695c.34592-.4843.89939-.89938.96858-1.38368.13837-3.11328,0-6.22656.13837-9.33984.13838-2.9749.4843-5.88064.761-8.92473a3.35008,3.35008,0,0,1,3.59758,2.49062,16.434,16.434,0,0,1,.761,5.74227c-1.52206,16.39662-10.58515,27.1893-25.5289,33.27749-9.20146,3.736-18.95641,5.46555-28.71136,6.9184a280.89,280.89,0,0,1-41.02611,3.04411,101.72945,101.72945,0,0,1-49.46657-12.17637,46.14959,46.14959,0,0,1-8.99392-6.98756c-3.59756-3.39-6.84921-7.05678-10.30841-10.58515a2.262,2.262,0,0,1-.55347-2.42144c2.5598-8.57881,5.11961-17.15762,7.61024-25.73646.27673-1.03776.62265-1.45286,1.868-1.10694,12.24557,3.73593,24.56032,7.47186,36.80589,11.13862,1.31449.41511,1.7296.89939,1.45287,2.28307-.96857,4.7045-2.35225,9.13229-5.1888,13.07577-4.151,5.74226-10.03168,7.95616-16.88089,6.15737C116.66,323.11713,114.1694,322.01019,111.60959,321.04161Zm124.94632-46.42247c-.06919-1.59122-.13838-4.08185-.34592-6.50329-.13838-1.79879-.69184-2.07552-2.35225-1.45287-1.45287.55347-2.97491,1.10695-4.497,1.52206a61.08641,61.08641,0,0,1-16.25824,1.38368,162.99242,162.99242,0,0,1-25.87482-3.04409c-1.52205-.27673-2.28306.06919-2.76736,1.45287-1.38368,3.8743-2.90573,7.61024-4.151,11.48454a59.55458,59.55458,0,0,0-2.76736,22.62318c.62265,8.37127,4.35859,14.45945,12.45312,17.296a42.294,42.294,0,0,0,31.06362-1.03776,16.20816,16.20816,0,0,0,9.33984-9.82413C234.48039,297.865,236.27918,286.86472,236.55591,274.61914Z"/>
        <path class="a11d1da1-dc6f-44d0-8a18-9ab2500b6414" d="M85.11212,179.62951a41.27943,41.27943,0,0,1-1.66041,12.24558,32.21227,32.21227,0,0,1-1.79879,4.22023,5.5319,5.5319,0,0,1-5.39636,3.11328c-8.23289-.13838-16.46579.13838-24.6295,0a168.75644,168.75644,0,0,1-26.42829-2.07552c-11.277-1.93714-17.78029-8.78638-20.61683-19.5099a76.8258,76.8258,0,0,1-2.35226-19.85582c0-6.29574,3.4592-10.72352,8.30208-14.2519a69.9121,69.9121,0,0,1,18.33376-9.13229c11.55373-4.01267,23.17664-7.81779,34.86874-11.55373a3.53783,3.53783,0,0,1,2.76736.34592c5.46554,3.11328,8.78637,8.02535,11.34618,13.56007s3.66675,11.48455,4.77369,17.43438A146.97988,146.97988,0,0,1,85.11212,179.62951Z"/>
        <path class="fba86a35-36db-449b-94a1-6afadc6c510a" d="M428.05724,175.61683c.13838,12.72985-1.522,25.183-6.15739,37.08263-3.52837,9.06311-8.44046,17.15762-16.18907,23.17664-9.47822,7.33351-20.13253,9.1323-31.54789,5.74226-10.8619-3.18246-19.5099-9.8933-26.9126-18.19538-13.49088-14.94375-21.58541-32.58567-26.35911-51.888a126.43881,126.43881,0,0,1-3.4592-43.51674c1.3145-13.00659,4.56615-25.45971,11.89966-36.52915,5.6731-8.57881,13.07577-15.01293,23.38421-17.36519,8.92475-2.07552,17.36516-.41511,25.4597,3.59756,10.23923,5.11962,18.2646,12.799,25.04462,21.86215,12.31474,16.39661,19.5099,35.00711,22.89989,55.13964,1.17613,6.84921,1.66043,13.906,2.42144,20.82439A1.35048,1.35048,0,0,1,428.05724,175.61683Zm-12.17641-2.00633a114.4045,114.4045,0,0,0-5.05042-32.58567c-3.9435-13.42169-9.75493-25.87482-18.67968-36.73671-5.05043-6.0882-10.8619-11.34617-18.19539-14.59783-10.10084-4.497-19.71744-3.80512-28.50381,3.32083-4.63534,3.73593-7.81779,8.57881-10.30842,13.97517-4.7045,10.17005-6.4341,21.03193-6.71085,32.17056a116.22958,116.22958,0,0,0,2.49063,26.35911c3.18246,15.01294,8.50962,29.12647,17.296,41.718,5.67309,8.1637,12.45312,15.22048,21.58541,19.50989,9.06309,4.28942,18.057,4.35859,26.63585-1.31449,6.22656-4.151,10.23922-10.10087,13.145-16.8117C414.35878,197.96328,415.88083,186.75546,415.88083,173.6105Z"/>
        <path class="f2819b7a-0365-4840-9e41-6e7363bde7b9" d="M141.843,300.56314c-13.28333-3.52838-26.42829-7.05677-39.85-10.65433,2.83655-8.09453,5.53472-15.98151,8.23289-23.79929-.20755-.06919-.34592-.20754-.55347-.27673a7.32955,7.32955,0,0,0-.83021,1.38368c-2.83654,7.67943-5.81145,15.22048-8.44044,22.96909-3.25165,9.68577-6.29575,19.44071-9.33984,29.19566-1.03776,3.32083-1.7296,6.78-2.629,10.17006a13.102,13.102,0,0,1-.41511,1.2453c-4.42777-1.31451-8.78636-2.55981-13.35251-3.87428.4151-2.14471.83021-4.35859,1.3145-6.5033,5.53472-25.25216,12.72985-50.02,20.61683-74.58036.06918-.27674.27673-.55347.20755-.761a12.73819,12.73819,0,0,0-.62265-1.7296c-.48429.34592-1.31449.55346-1.45287,1.03776-.761,2.00633-1.38368,4.08185-2.07552,6.15737-1.868,5.94983-3.66675,11.96882-5.46553,17.91865a1.03925,1.03925,0,0,1-.69184.761c.20755-3.59758.27673-7.26432.62265-10.8619.41511-4.56615.96857-9.20146,1.45287-13.76761a4.25669,4.25669,0,0,1,1.59123-2.90574c4.91207-4.42777,10.79271-4.42777,16.81172-4.08185a79.7537,79.7537,0,0,1,36.18323,11.41536,2.62416,2.62416,0,0,1,1.24532,1.868c-.69184,16.0507-1.522,32.10137-2.28308,48.08288A15.43117,15.43117,0,0,1,141.843,300.56314Z"/>
        <path class="e1dad115-8ed8-4748-ba1c-d4aafb2698df" d="M157.617,64.64569c-.13837,4.01268-.62266,8.09453-.41511,12.1072.48428,10.44679,4.2894,19.85581,10.3776,28.29626,10.79271,15.08211,25.32135,24.56032,43.7243,27.53523,9.33984,1.522,18.403.48429,27.1893-4.35859a6.40791,6.40791,0,0,1-.55346,1.17612c-3.4592,4.56615-6.98759,9.06311-10.30841,13.69844-4.91207,6.71084-11.6921,10.516-19.5099,12.52231-10.17006,2.55981-20.06336,1.03776-29.74912-2.629-10.8619-4.151-20.20173-10.23923-26.91258-19.925a57.437,57.437,0,0,1-9.61657-26.8434,56.24639,56.24639,0,0,1,.27673-15.98151c.48429-2.90572,2.00634-5.258,3.52839-7.541,3.94349-5.94983,7.95616-11.89965,11.89965-17.84947A.15152.15152,0,0,1,157.617,64.64569Z"/>
        <path class="a11d1da1-dc6f-44d0-8a18-9ab2500b6414" d="M91.6846,72.25593c-.83021-4.08185-1.7296-8.16371-2.49063-12.24556a110.79931,110.79931,0,0,1-1.93715-24.83706c.27673-6.29575.96857-12.45312,3.66675-18.26458a15.62865,15.62865,0,0,1,6.50329-7.19514c3.04409-1.7296,6.019-3.59757,9.20148-5.05043,8.99392-4.151,17.15763-2.55981,24.42195,3.94349,6.22656,5.53472,11.20781,12.17638,15.84314,19.0256,3.94348,5.81146,7.54105,11.76128,11.277,17.7111a6.74608,6.74608,0,0,1,.62265,1.24532c-26.42829-1.868-49.18983,5.1888-66.6242,25.944A1.11515,1.11515,0,0,0,91.6846,72.25593Z"/>
        <path class="a49ff70e-40a6-4bac-b925-33ad7f0168f5" d="M160.246,56.68954c-1.31449,1.868-2.49063,3.59756-3.66675,5.32717-4.3586,6.43411-8.50964,12.9374-13.0066,19.23315a24.41882,24.41882,0,0,0-4.42777,15.774c.13837,3.18247-.89939,4.77369-3.66676,6.36492-14.2519,8.44045-27.60441,18.12621-40.95692,27.95035-.62265.48428-1.24532.96857-2.07552,1.522-.34592-.55347-.62266-.96857-.8994-1.45286A42.57174,42.57174,0,0,0,79.99251,117.4331a2.1504,2.1504,0,0,1-.62266-1.7296c.62266-6.0882,3.25165-11.48455,5.88064-16.88089,6.71085-13.49088,17.78029-22.27725,30.78689-29.05729A125.3157,125.3157,0,0,1,156.92512,56.8971c.96857-.13836,1.868-.20755,2.83654-.27674C159.76166,56.55117,159.9,56.62035,160.246,56.68954Z"/>
        <path class="fba86a35-36db-449b-94a1-6afadc6c510a" d="M195.52978,37.66394c14.25191.34592,26.63584,5.6039,37.35936,14.80537,9.54739,8.16372,16.32743,18.1954,19.5099,30.441,2.90574,11.06944,2.28306,21.793-3.80512,31.75546-6.4341,10.72352-16.25824,15.91232-28.573,16.11987-16.46579.27674-30.30259-6.29574-42.13306-17.296a58.12974,58.12974,0,0,1-16.32743-25.39052c-3.11328-9.82413-3.52839-19.71745.761-29.19565,6.08818-13.49088,16.60416-20.82439,31.6171-21.23949ZM169.1015,76.47616c.34592,2.49063.4843,4.98125,1.03777,7.40269,4.28941,19.57907,22.76153,35.353,42.68653,36.59834,8.02535.48429,15.63559-.96857,21.86215-6.36493,9.82414-8.37126,12.72986-19.30233,10.17006-31.61708C241.95227,68.52,233.65019,58.35,221.40464,51.36238a41.18941,41.18941,0,0,0-26.49747-5.46554C178.85645,47.97235,169.1015,61.80915,169.1015,76.47616Z"/>
        <path class="a11d1da1-dc6f-44d0-8a18-9ab2500b6414" d="M314.66464,132.65357a139.487,139.487,0,0,0,18.6105,75.964,2.0067,2.0067,0,0,1-.761-.20755,97.78449,97.78449,0,0,0-41.372-10.58514,2.27784,2.27784,0,0,1-1.31449-.41511c-6.36494-4.91207-11.55374-10.72352-12.86823-18.95641a25.61632,25.61632,0,0,1,3.9435-18.057,3.44359,3.44359,0,0,1,1.17614-1.03776c8.71718-4.77369,16.18905-11.20781,23.45337-17.91865C308.43808,138.74176,311.34382,135.836,314.66464,132.65357Z"/>
        <path class="a11d1da1-dc6f-44d0-8a18-9ab2500b6414" d="M258.34887,154.93082c.83022-3.25166,1.7296-6.22656,2.28306-9.27066a64.53332,64.53332,0,0,0-3.32082-33.76179c-1.52206-4.151-2.35225-7.95616-1.38368-12.38393.62265-2.69818.13838-5.67309.20754-8.57882V89.13684c3.52839.27673,6.98759.4151,10.3776.761A60.17942,60.17942,0,0,1,283.18592,93.703a16.08657,16.08657,0,0,1,8.37127,7.19514c3.66675,6.84921,5.88064,13.97516,4.497,21.793a21.07089,21.07089,0,0,1-6.57248,11.89964c-6.78,6.22656-14.59783,11.06944-22.554,15.70478-2.28306,1.31449-4.63533,2.55982-6.98759,3.87431A17.33452,17.33452,0,0,1,258.34887,154.93082Z"/>
        <path class="fba86a35-36db-449b-94a1-6afadc6c510a" d="M286.2992,197.75571c-2.90573.27673-5.46553.34592-8.02535.69184-5.46553.83022-10.93106,1.868-16.46578,2.76736-9.8933,1.66041-15.70478-4.63534-17.36519-12.31474-1.17614-5.46554-.4843-10.8619.96857-16.18906a2.86384,2.86384,0,0,1,1.59123-1.522c3.18246-1.107,6.4341-2.14471,9.68576-3.11328,6.78-2.07552,13.56007-4.151,20.54765-6.29575C271.00953,175.96275,274.74547,187.724,286.2992,197.75571Z"/>
        <path class="ff948813-7689-4cd5-9772-f8125de68ac7" d="M273.70771,236.98305c4.42777,2.629,8.57881,5.1888,12.86822,7.54105,2.55982,1.38368,5.32718,2.35225,7.95617,3.59758a2.757,2.757,0,0,1,1.17613,1.31449c.761,1.66041,1.38368,3.4592,2.2139,5.11961a22.88577,22.88577,0,0,0,2.00633,3.25166c2.14471,2.76736,4.7045,4.77369,8.57881,3.73593,3.73593-1.03776,7.05678-4.63534,7.26432-8.44046a45.48494,45.48494,0,0,0-.69184-7.47186c1.93715-1.31449,4.151-2.83655,6.78-4.56615.89938,3.73593,2.07552,7.54105,2.76736,11.34617.48429,2.629-1.17614,4.63534-2.97491,6.36494a16.37375,16.37375,0,0,1-9.82413,4.497c-7.19514.761-14.3211,1.59122-21.51623,2.14471a52.78764,52.78764,0,0,1-8.09454-.27673,33.30847,33.30847,0,0,0-11.96882,1.17613,8.737,8.737,0,0,0-5.81146,4.7737c-2.76736,5.81145-5.6039,11.55373-8.44045,17.296a7.18276,7.18276,0,0,1-.4843.83021c-.06919-.55346-.13838-.761-.13838-.96857a305.24894,305.24894,0,0,1,7.95616-32.51648,8.10014,8.10014,0,0,1,1.52206-2.55982c1.17614-1.45287,2.42144-2.76736,3.73593-4.151A19.76007,19.76007,0,0,0,273.70771,236.98305Z"/>
        <path class="ac9fbcf8-50a6-437c-a0ea-3934a8704afa" d="M138.93728,104.0114c.69184,3.80512,1.17612,7.47187,2.07552,11.06944s2.1447,7.05676,3.32083,10.72352c-17.01927,4.84288-31.68628,14.32108-45.79981,25.183-.27673-.96857-.41511-1.79879-.62265-2.629q-1.97173-6.019-3.94349-12.038c-.27673-.761-.48428-1.31449.34592-1.868,14.39028-10.516,28.78054-20.96276,44.1394-30.095C138.52217,104.219,138.66054,104.14976,138.93728,104.0114Z"/>
        <path class="ac9fbcf8-50a6-437c-a0ea-3934a8704afa" d="M61.382,341.72765c-1.38368,1.31451-2.83655,2.55981-4.151,3.87428a7.54966,7.54966,0,0,0-1.45287,1.868,5.21834,5.21834,0,0,0,0,1.79877,7.37925,7.37925,0,0,0,1.868-.55346c2.42144-2.28307,4.7737-4.63534,7.126-6.91841a11.82025,11.82025,0,0,1,1.17612-.761,11.31992,11.31992,0,0,1,.06918,1.38368c.06919.89938-.27673,2.14468,1.17613,2.14468,1.45286-.06916,1.03776-1.31451,1.10694-2.21389.48429-4.497.8994-8.92476,1.38368-13.42172a3.738,3.738,0,0,1,.27674-.83021c4.63533,1.2453,9.20147,2.42144,13.76762,3.80512,2.42144.761,4.77369,1.79877,7.12595,2.69819.96857.34592,1.107.89939.62265,1.79877-1.24531,2.35227-2.42144,4.7045-3.52838,7.12594a6.23944,6.23944,0,0,0-.41511,2.97491c.13836,2.55981.41511,5.11963.62265,7.6794-.13837,0-.27673-.06916-.48429-.06916a24.02586,24.02586,0,0,0-2.28307,1.2453c-3.25165,2.28306-6.36493,4.77371-9.68576,6.98757a14.30978,14.30978,0,0,1-5.258,2.00635,5.19457,5.19457,0,0,1-5.74228-2.55982,2.52533,2.52533,0,0,0-2.49062-1.31451,27.8178,27.8178,0,0,1-4.151-.20754c-4.56615-.4843-7.95616-3.736-9.20148-8.57884-.89939-3.80512.69184-7.61024,4.28941-10.17005C55.91647,339.79046,59.02975,339.72129,61.382,341.72765Z"/>
        <path class="e1dad115-8ed8-4748-ba1c-d4aafb2698df" d="M68.43877,121.44576c3.11328-.89939,5.94983-1.7296,8.92474-2.42144.48429-.13836,1.24532.41511,1.79879.83021,5.258,4.01267,8.85555,9.33984,11.62291,15.28967,4.28941,9.13228,6.29575,18.88723,7.19514,28.84973a93.37388,93.37388,0,0,1,0,20.61682c-.55348,4.01266-1.38368,7.95616-3.4592,11.48455-.96857,1.7296-2.14471,2.83655-4.42778,2.69817a65.58431,65.58431,0,0,0-7.3335.27673c.89939-1.93714,1.868-3.66674,2.5598-5.46553,1.868-5.1888,2.07552-10.72352,2.00633-16.18905a146.59252,146.59252,0,0,0-4.98124-34.66119A37.39337,37.39337,0,0,0,72.10552,124.559,44.992,44.992,0,0,0,68.43877,121.44576Z"/>
        <path class="aaef7fc2-818c-4708-af82-92f2728bf684" d="M85.5964,241.27247c.20756-3.0441.34592-6.08819.55348-9.1323a1.79768,1.79768,0,0,1,.62265-1.107c3.11328-3.32082,6.43411-6.08818,11.20781-6.64167a58.41674,58.41674,0,0,1,17.71111.62265c9.61657,1.7296,19.09478,3.80512,28.64217,5.88064a16.45275,16.45275,0,0,1,3.94349,1.66042c5.05043,2.49062,10.03168,5.11961,15.08211,7.61024a1.59816,1.59816,0,0,1,1.107,1.93714,36.95116,36.95116,0,0,1-5.74228,15.63559c-2.5598-2.07552-4.98124-4.08185-7.7486-6.4341,2.5598.761,4.70451,1.03776,6.84921.20754a7.051,7.051,0,0,0,4.35859-4.7045,6.84424,6.84424,0,0,0-3.4592-7.81779,8.12475,8.12475,0,0,0-9.75494,1.52206c-1.868,2.07552-2.90573,5.74226.13836,9.54738-.48428-.27673-.96857-.62265-1.45287-.89938A83.1748,83.1748,0,0,0,107.32017,235.461c-2.21389-.13837-4.42778-.06918-6.64167,0-3.87431.13838-7.541.96858-10.58516,3.66675a36.02765,36.02765,0,0,1-3.80512,2.49063A6.38969,6.38969,0,0,0,85.5964,241.27247Z"/>
        <path class="fba86a35-36db-449b-94a1-6afadc6c510a" d="M312.03566,245.977c2.90574,4.7045,1.7296,10.03168-2.76736,12.5915-2.28306,1.31449-4.28942,1.2453-6.019-.761a21.22437,21.22437,0,0,1-4.08185-6.15737c-3.18247-8.78638-8.37127-16.46579-13.906-23.7993-6.019-7.95616-10.516-16.74253-15.0821-25.52889,3.59758-2.07552,23.93767-2.90574,30.23342-1.31449a44.738,44.738,0,0,0-.761,6.019c0,2.21389-.89939,3.32082-2.83655,4.35858-5.05042,2.69817-7.541,8.09454-6.15737,12.72985,1.17613,3.87431,3.59757,6.50329,7.61024,7.19513a49.69275,49.69275,0,0,0-2.69817,4.98126,6.651,6.651,0,0,0,1.79878,7.541,11.51628,11.51628,0,0,0,12.31475,2.83655A9.20789,9.20789,0,0,0,312.03566,245.977Z"/>
        <path class="ac9fbcf8-50a6-437c-a0ea-3934a8704afa" d="M170.62354,367.18735a91.05152,91.05152,0,0,0,29.95667,1.17614,3.35389,3.35389,0,0,1,1.79878.34592,31.85363,31.85363,0,0,0,9.06311,2.69819,10.20513,10.20513,0,0,1,8.99392,11.48453,1.863,1.863,0,0,1-1.79879,1.93714,53.59565,53.59565,0,0,1-16.95008.55347c-7.19513-1.03776-14.39026-2.49061-21.58541-3.66675-3.18247-.55346-6.43411-.83021-9.61658-1.2453-.48429-.06917-.89938-.13838-1.52205-.20754C169.1015,375.697,169.23986,371.33839,170.62354,367.18735Z"/>
        <path class="ac9fbcf8-50a6-437c-a0ea-3934a8704afa" d="M302.69582,212.146c6.78.48429,11.96882,3.32082,14.667,9.82413.761,1.93715,1.522,3.80512,2.28306,5.74227.41511,1.10695.27673,2.42144,1.59122,3.11328.27674.13837.27674.761.27674,1.17613a10.64373,10.64373,0,0,1-8.92474,11.20782,9.468,9.468,0,0,0-2.629,1.03776,9.32514,9.32514,0,0,1-11.06944-2.07552,4.66228,4.66228,0,0,1-1.03776-5.39634,11.944,11.944,0,0,1,6.4341-6.29575,20.021,20.021,0,0,0,2.97491-1.52206c.41511-.27673.41511-1.10695.62265-1.66041-.62265-.06919-1.2453-.41511-1.79879-.20754-1.7296.55346-3.39,1.59122-5.1888,1.93714-4.84288.96857-9.20146-3.66674-8.23289-8.57881C293.49434,215.88193,298.47559,211.86926,302.69582,212.146Z"/>
        <path class="e1dad115-8ed8-4748-ba1c-d4aafb2698df" d="M94.2444,82.01088c-.55347-2.14471-1.10694-4.01267-1.45286-5.94983a1.80321,1.80321,0,0,1,.48428-1.38368c8.37127-9.409,17.78029-17.36518,29.8183-21.5854a86.44161,86.44161,0,0,1,35.9065-4.22023c1.79878.13837,2.1447,1.52205,2.76736,2.629,1.24531,2.21388,1.10694,2.42144-1.45287,2.69817-22.89991,2.629-43.86266,10.10087-62.12724,24.49115C96.8734,79.65863,95.69727,80.76557,94.2444,82.01088Z"/>
        <path class="b6a37ea1-b6ba-4b3b-a115-0302068b9626" d="M118.9431,343.80317c5.74228,1.868,11.34617,4.01266,17.15764,5.46555,5.74227,1.45285,11.69209,2.28306,17.64192,3.39a16.53538,16.53538,0,0,0-.69184,1.79877c-1.10695,3.52837-2.14471,7.05678-3.32084,10.58515a2.44661,2.44661,0,0,1-1.31449,1.31451,36.55318,36.55318,0,0,1-14.59783,2.55981,117.63517,117.63517,0,0,1-12.1072-1.2453c-.761-.06917-1.31449-.34592-1.24531-1.38368a63.15514,63.15514,0,0,0-1.59124-22.208A.71538.71538,0,0,1,118.9431,343.80317Z"/>
        <path class="b6a37ea1-b6ba-4b3b-a115-0302068b9626" d="M204.247,349.54543c-.34592,4.912-.69184,9.68576-.89938,14.45948-.06919,1.2453-.62266,1.59122-1.7296,1.79876a69.27739,69.27739,0,0,1-21.37786.4843c-3.59757-.41509-7.12594-1.17614-10.65433-1.868a2.19615,2.19615,0,0,1-1.93714-2.42144,79.84112,79.84112,0,0,0-.69184-8.09453c-.13837-1.17614.20755-1.45285,1.31449-1.52206,7.74862-.41509,15.428-.83022,23.17664-1.38368,3.80512-.27675,7.61024-.89938,11.34617-1.38368A8.847,8.847,0,0,0,204.247,349.54543Z"/>
        <path class="ac9fbcf8-50a6-437c-a0ea-3934a8704afa" d="M145.92486,369.8855a2.58025,2.58025,0,0,1,.13837.83022,14.77925,14.77925,0,0,0,1.52205,7.05678c1.17612,2.35227.89939,2.629-1.38368,3.87428a11.87586,11.87586,0,0,0-3.73594,2.83653c-1.79878,2.28306-4.151,3.32082-6.78,4.22021a32.11878,32.11878,0,0,1-15.98151.89938,3.18229,3.18229,0,0,1-2.90573-2.90573c-.69184-4.77372.06919-8.92476,4.28941-12.038a24.61794,24.61794,0,0,0,3.18247-3.39,1.26339,1.26339,0,0,1,1.03776-.41509,55.89658,55.89658,0,0,0,20.34009-1.03776C145.71731,369.74717,145.71731,369.74717,145.92486,369.8855Z"/>
        <path class="e1dad115-8ed8-4748-ba1c-d4aafb2698df" d="M254.19783,109.61529c5.258,14.32109,7.12594,28.78055,2.07552,43.58593-.13838,0-.27673.06918-.41511.06918l-1.03776-4.151c-2.42144-8.92473-4.77369-17.91865-7.26432-26.84339a2.78924,2.78924,0,0,1,.4843-2.629C250.116,116.46452,252.12231,113.14368,254.19783,109.61529Z"/>
        <path class="aaef7fc2-818c-4708-af82-92f2728bf684" d="M270.17934,219.4795c1.2453,9.1323,3.4592,18.12622-2.00633,26.56666h-.4843c-.13838-1.52206-.20754-3.11328-.4843-4.56615-.55346-3.04409-2.83654-4.01266-5.39634-2.35225a8.2459,8.2459,0,0,0-2.49063,2.629c-2.07552,3.39-1.03776,8.92473,2.28307,11.48455-1.7296,1.59122-3.39,3.11328-5.32718,4.98126-.13838-1.107-.20755-1.79879-.27673-2.55982-.27674-3.9435-.62266-7.95616-.83022-11.89966a3.23982,3.23982,0,0,1,.96857-2.14471,94.41585,94.41585,0,0,0,12.799-13.49088,2.989,2.989,0,0,0,.41511-2.07552,21.49791,21.49791,0,0,0-.69184-4.22022C268.24217,220.58643,268.65728,219.89459,270.17934,219.4795Z"/>
        <path class="ac9fbcf8-50a6-437c-a0ea-3934a8704afa" d="M154.71123,249.7129c-2.90573,0-5.32717-2.21389-5.258-4.84288a5.22021,5.22021,0,0,1,5.258-4.7045c2.83655,0,5.32717,2.28306,5.32717,4.77369C160.10758,247.56819,157.617,249.7129,154.71123,249.7129Z"/>
        <path class="ac9fbcf8-50a6-437c-a0ea-3934a8704afa" d="M282.84,228.33505c2.35225,3.39,4.70451,6.71086,7.33351,10.516-2.90574-.27674-5.46553-.34592-7.12594-2.42144C281.1104,234.00815,281.66387,231.24079,282.84,228.33505Z"/>
        <path class="ac9fbcf8-50a6-437c-a0ea-3934a8704afa" d="M265.19808,244.59329a6.872,6.872,0,0,1-1.868,5.32718c-.96858.96857-1.66042.89938-2.07552-.41511-1.03776-2.97491-1.17614-6.019,1.03776-7.95616a2.97317,2.97317,0,0,1,1.93714-.761c.34592.06919.62265,1.03776.83022,1.7296A17.33485,17.33485,0,0,1,265.19808,244.59329Z"/>
        <path class="ac9fbcf8-50a6-437c-a0ea-3934a8704afa" d="M87.04927,357.98589c-.89939.69184-1.868,1.31451-2.76736,2.00635-.13836-.13837-.20755-.34592-.34592-.48429.8994-.69185,1.79879-1.38369,2.69817-2.00636C86.77254,357.64,86.91091,357.84751,87.04927,357.98589Z"/>
        <path class="b59246d0-a4dc-4318-a78d-ada37d24c162" d="M231.02119,213.668a9.39668,9.39668,0,0,1-2.49063-.83021,28.56938,28.56938,0,0,0-16.67335-5.74227,1.8402,1.8402,0,0,1-2.00633-1.52206c-1.52206-4.77369-.761-9.54738.41511-14.2519.48429-1.868,1.107-3.73594,1.66041-5.6731,3.73593,1.2453,7.33351,2.76736,10.79271.34592,1.45287.55346,2.90573,1.03776,4.28941,1.66041a1.49815,1.49815,0,0,1,.761,1.03776c1.10695,7.33351,2.2139,14.667,3.25166,22.00051A20.8289,20.8289,0,0,1,231.02119,213.668Z"/>
        <path class="a533a755-8f95-44b5-9620-0f09a83cca99" d="M223.48014,182.95034a1.65382,1.65382,0,0,0-.4843.20754c-1.10695,3.18247-3.66674,2.97491-6.15737,2.42144a40.42825,40.42825,0,0,1-4.08185-1.38368c1.31449-3.52839,4.08185-5.11961,7.887-4.77369,3.39.27673,5.53472,2.49063,6.36493,6.84921a8.79416,8.79416,0,0,1-2.69817-.96857C223.82606,184.81831,223.75687,183.78055,223.48014,182.95034Z"/>
        <path class="a11d1da1-dc6f-44d0-8a18-9ab2500b6414" d="M227.42361,213.3913c-1.7296.96857-3.11328,1.79879-4.56615,2.69817a7.496,7.496,0,0,0-5.60391-2.00633,3.32859,3.32859,0,0,1-2.9749-1.45287c-.89938-1.2453-1.868-2.35225-2.69817-3.73593A26.78518,26.78518,0,0,1,227.42361,213.3913Z"/>
        <path class="a533a755-8f95-44b5-9620-0f09a83cca99" d="M230.53689,214.70579a5.73834,5.73834,0,0,1-5.46553,5.81145c-.41511,0-1.2453-.34592-1.2453-.55346-.06919-1.03776-.20755-2.42144.34592-2.9749A7.10734,7.10734,0,0,1,230.53689,214.70579Z"/>
        <path class="a533a755-8f95-44b5-9620-0f09a83cca99" d="M222.09646,219.96378c-1.66042-1.38368-3.25166-2.629-4.91207-4.01266C220.50521,215.1209,222.64992,216.8505,222.09646,219.96378Z"/>
        <path class="b6a37ea1-b6ba-4b3b-a115-0302068b9626" d="M234.13447,269.36115c0,2.90574.06919,5.81146,0,8.71719a93.98391,93.98391,0,0,1-5.53472,28.91891,14.82523,14.82523,0,0,1-9.27065,9.54738c-10.23923,3.80512-20.47847,4.28942-30.57934-.34592a14.14305,14.14305,0,0,1-8.23289-10.44679,45.90694,45.90694,0,0,1,.89938-21.23949c1.2453-4.84288,3.04409-9.47822,4.56615-14.18272.41511-1.3145,1.10695-1.45287,2.35225-1.24531a142.42657,142.42657,0,0,0,26.49746,2.83655c6.29575.06919,12.52231-.34592,18.47214-2.49063A2.38783,2.38783,0,0,1,234.13447,269.36115Z"/>
        <path class="fba86a35-36db-449b-94a1-6afadc6c510a" d="M413.45939,175.20174c.20755,10.72352-1.2453,21.2395-5.39634,31.27118a40.10556,40.10556,0,0,1-8.37125,13.21415c-7.95616,8.09454-18.33376,9.8933-28.573,5.05042a48.5848,48.5848,0,0,1-18.81806-16.25824c-3.39-4.7045-6.15739-9.8933-9.27065-14.80537-.761-1.2453-.41511-1.79879.83021-2.42144a107.91369,107.91369,0,0,1,20.27093-7.887c5.6731-1.66041,11.34619-3.04409,17.01925-4.497a5.24377,5.24377,0,0,1,1.10692-.20755c3.66675-.13837,6.08819-2.1447,7.74862-5.258a23.61428,23.61428,0,0,0,2.2139-12.66067c-.55347-7.4027-2.629-14.25191-7.67941-19.925-2.2139-2.49063-4.912-4.28941-8.37125-4.22023a8.70909,8.70909,0,0,0-1.868.27673,122.669,122.669,0,0,1-34.31527,5.11961c-2.55982,0-5.1888-.27673-7.74862-.41511-.89938-.06919-1.31449-.34592-1.31449-1.38368.20754-12.52231,2.14471-24.69868,8.37127-35.83731,2.83654-5.05044,6.43412-9.33984,11.55371-12.24557,8.09454-4.497,16.18908-3.73593,24.14524.41511,8.30208,4.35859,14.52864,11.06944,19.7866,18.74887,10.44677,15.28967,15.91233,32.4473,18.19539,50.64269q.41512,3.32083.62267,6.64166C413.5286,170.91233,413.45939,173.057,413.45939,175.20174Z"/>
        <path class="e1dad115-8ed8-4748-ba1c-d4aafb2698df" d="M368.62817,141.1632c-4.70451,13.69843-2.00636,25.80563,8.37124,36.32161-12.1072,3.11328-24.28356,6.50329-35.49138,12.5223-4.84288-6.9184-11.34617-35.21465-10.58514-45.59225,6.36493-.13837,12.799,0,19.09476-.55347C356.38259,143.23872,362.67836,141.99341,368.62817,141.1632Z"/>
        <path class="a11d1da1-dc6f-44d0-8a18-9ab2500b6414" d="M389.93683,162.887a22.26831,22.26831,0,0,1-2.00635,9.33984c-2.00635,4.151-6.57248,5.32717-10.30843,2.28306a23.43038,23.43038,0,0,1-7.05678-10.93106c-1.868-5.6731-2.69819-11.48455-1.10693-17.36519a16.467,16.467,0,0,1,2.35227-4.98125c2.00636-2.76736,4.98126-3.18247,7.887-1.38368,3.80512,2.42144,6.019,6.0882,7.67941,10.10086A35.62451,35.62451,0,0,1,389.93683,162.887Z"/>
        <path class="a533a755-8f95-44b5-9620-0f09a83cca99" d="M207.08352,109.82285c-2.83655.13836-5.46553.34592-8.09454.41511-1.38368.06918-2.76736-.13837-4.151.06918a8.657,8.657,0,0,1-7.05678-2.42144c-8.50962-7.3335-14.32109-16.11987-15.9815-27.39685a23.47717,23.47717,0,0,1-.27674-3.80512,2.17153,2.17153,0,0,1,.4843-1.45287c5.32718-5.1888,11.277-9.5474,18.5413-11.62292,9.82414-2.83654,18.6105-.48428,26.705,5.39636A47.98377,47.98377,0,0,1,229.084,81.38823a32.90676,32.90676,0,0,1,4.497,11.48455,7.08027,7.08027,0,0,1-1.7296,6.29575c-.13837-.761-.27673-1.3145-.4151-1.868-1.7296-8.30208-9.47822-13.97517-17.50355-12.86823-5.74226.83021-9.96249,5.53472-10.58514,11.62292a19.28727,19.28727,0,0,0,3.04409,12.59148C206.53006,108.85428,206.7376,109.2002,207.08352,109.82285Z"/>
        <path class="eb4f9db8-923c-4639-87d4-523b3e6c3bc8" d="M195.66816,112.31348c2.49063,0,5.05042.13836,7.54105,0,6.9184-.34592,13.76761-1.17613,20.20174-3.87431A25.31788,25.31788,0,0,0,234.27284,99.722c2.07552-2.83655,2.14471-6.08819,1.17614-9.27065-4.42777-14.59783-14.11353-24.35277-28.50382-29.12646-9.47821-3.11328-18.47213-.83021-26.705,4.42777-2.76736,1.79879-5.39634,3.87431-8.37126,6.019.4151-2.629.62265-5.258,2.21389-7.126,6.019-7.47187,13.62926-12.31475,23.52256-12.86822,5.53472-.27674,10.65434,1.45286,15.5664,3.80512,8.30208,3.94348,15.774,8.99391,21.2395,16.535a36.13277,36.13277,0,0,1,6.36494,27.74278c-1.59123,9.75494-8.44046,14.73619-17.22681,17.296s-17.296.761-25.5289-2.97492c-.83021-.34592-1.66041-.8302-2.49063-1.17612A2.45917,2.45917,0,0,0,195.66816,112.31348Z"/>
        <path class="ba1430f1-3db9-4413-9582-6f200c6f77b0" d="M205.4923,98.68423c-.06919-5.1888,2.1447-11.55373,9.54738-12.1072a12.4537,12.4537,0,0,1,11.55374,5.46553,15.29423,15.29423,0,0,1,2.90573,7.47188,3.76327,3.76327,0,0,1-1.45287,3.4592c-4.01266,3.39-8.78637,4.77369-13.76761,5.74227a4.08278,4.08278,0,0,1-.96857.13837c-3.73593.55347-3.25166,1.38368-5.53472-2.69818-1.2453-2.28307-1.79879-4.91206-2.69817-7.40268A.4575.4575,0,0,0,205.4923,98.68423Zm4.151.62265a7.23221,7.23221,0,0,0,6.98758,7.541,6.813,6.813,0,0,0,6.78-7.05676,7.27722,7.27722,0,0,0-6.98759-7.541C212.68743,92.18093,209.7125,95.29421,209.64334,99.30688Z"/>
        <path class="e1dad115-8ed8-4748-ba1c-d4aafb2698df" d="M242.71328,84.22477c-.96857-2.49063-1.79879-5.11962-2.90574-7.54106a42.96779,42.96779,0,0,0-14.39026-16.67334c-6.84921-4.84288-14.11353-8.92474-22.4848-10.30842a29.06906,29.06906,0,0,0-19.99417,4.01268,7.15484,7.15484,0,0,1-1.79879.8302,22.16353,22.16353,0,0,1,10.65433-5.81145,36.45222,36.45222,0,0,1,25.04462,2.90572c12.799,6.019,21.37785,15.70477,25.32135,29.334.27673,1.03776.41511,2.14471.69184,3.18247C242.85166,84.22477,242.78247,84.22477,242.71328,84.22477Z"/>
        <path class="ac9fbcf8-50a6-437c-a0ea-3934a8704afa" d="M221.12786,99.6528a4.69046,4.69046,0,0,1-4.56615,4.91207,4.98191,4.98191,0,0,1-4.63533-5.11961A4.81637,4.81637,0,0,1,216.285,94.464,5.16868,5.16868,0,0,1,221.12786,99.6528Z"/>
      </g>
    </g>
  </g>
</svg>
